<svg xmlns="http://www.w3.org/2000/svg" width="768" height="169.01185264066675" viewBox="0 0 1090.1385498046875 239.90408325195312" version="1.1">
    <g filter="url(#shadow3)" transform="translate(-55.16441345214844,-480.0959167480469)">
        <path d="M 849.500 500.667 C 848.400 500.907, 845.138 501.562, 842.250 502.122 L 837 503.142 837 507.352 C 837 511.111, 837.321 511.683, 840 512.694 L 843 513.826 843 552.332 L 843 590.837 846.250 592.803 C 849.413 594.716, 849.754 594.723, 859 593.088 L 868.500 591.408 868.801 587.346 C 869.075 583.643, 868.832 583.173, 866.051 582.021 L 863 580.757 863 542.553 L 863 504.349 860.686 502.174 C 858.448 500.072, 854.609 499.555, 849.500 500.667 M 812.275 503.505 C 807.201 504.795, 802.589 506.136, 802.025 506.485 C 801.461 506.833, 801 508.856, 801 510.980 C 801 514.454, 801.300 514.907, 803.988 515.497 L 806.977 516.154 807.238 554.719 L 807.500 593.285 810.118 595.239 C 812.723 597.184, 812.788 597.182, 822.868 594.932 L 833 592.669 833 588.354 C 833 584.584, 832.684 583.959, 830.500 583.411 L 828 582.783 828 544.968 L 828 507.153 825.411 504.077 C 823.987 502.385, 822.525 501.036, 822.161 501.079 C 821.797 501.122, 817.349 502.214, 812.275 503.505 M 686 528.059 C 683.525 529.012, 678.913 530.938, 675.750 532.341 L 670 534.890 670 539.445 C 670 543.631, 670.201 544, 672.488 544 L 674.976 544 675.238 582.142 L 675.500 620.285 678.098 622.224 L 680.697 624.164 690.829 619.832 L 700.960 615.500 700.980 611.358 C 700.997 607.767, 700.668 607.133, 698.500 606.589 L 696 605.962 696 587.704 L 696 569.447 700.200 566.723 C 705.163 563.506, 707.550 563.291, 708.965 565.934 C 711.246 570.197, 710.032 621.730, 707.499 628.182 C 707.020 629.402, 707.690 630.305, 709.935 631.467 C 712.814 632.955, 713.202 632.942, 715.420 631.284 C 718.987 628.618, 725.206 619.770, 727.719 613.785 C 729.810 608.805, 729.940 607.041, 729.969 583.218 C 730.003 555.593, 729.611 553.204, 724.371 549.071 C 721.917 547.135, 720.589 546.864, 715.228 547.202 C 708.988 547.596, 708.919 547.634, 701.859 554.549 L 694.762 561.500 695.327 545.856 C 695.830 531.947, 695.704 530.051, 694.196 528.758 C 691.355 526.322, 690.663 526.263, 686 528.059 M 895.529 530.050 C 884.431 535.764, 878.809 540.210, 877.222 544.526 C 875.295 549.770, 874.441 569.256, 875.902 574.657 C 877.571 580.824, 882.891 588.067, 888.111 591.279 C 894.371 595.131, 901.390 595.748, 913.197 593.487 C 926.757 590.890, 927 590.760, 927 586.144 L 927 582.239 916.250 581.567 C 910.337 581.197, 904.241 580.405, 902.703 579.806 C 899.597 578.598, 897.514 575.255, 896.501 569.854 C 895.645 565.292, 896.488 565.036, 912.500 565 C 919.100 564.985, 925.572 564.686, 926.881 564.335 C 929.210 563.712, 929.248 563.523, 928.602 555.778 C 927.473 542.245, 923.755 534.822, 915.985 530.590 C 913.502 529.238, 909.227 527.871, 906.485 527.553 C 902.219 527.059, 900.639 527.419, 895.529 530.050 M 934 537.047 C 934 540.495, 934.443 541.345, 936.994 542.797 L 939.987 544.500 939.994 569.327 L 940 594.154 942.923 597.077 C 945.767 599.921, 946.119 600, 955.923 600 L 966 600 965.994 595.750 C 965.988 592.079, 965.580 591.268, 962.994 589.797 L 960 588.093 960 570.165 L 960 552.237 964.611 551.076 C 968.414 550.119, 969.616 550.173, 971.469 551.388 C 974.536 553.397, 974.976 557.016, 974.989 580.327 L 975 600.154 977.923 603.077 C 980.162 605.316, 981.766 606, 984.776 606 C 986.938 606, 991.473 606.289, 994.853 606.642 L 1001 607.285 1001 603.211 C 1001 599.847, 1000.489 598.772, 998.071 597.051 L 995.142 594.965 994.821 573.650 L 994.500 552.336 991.467 547.433 C 989.160 543.705, 987.044 541.820, 982.635 539.565 C 975.319 535.824, 971.829 535.872, 965.250 539.808 C 960.532 542.630, 960 542.756, 960 541.051 C 960 540.007, 958.835 537.769, 957.411 536.077 C 954.825 533.004, 954.809 533, 944.411 533 L 934 533 934 537.047 M 757.657 537.414 C 752.243 538.662, 747.454 540.265, 747.015 540.975 C 745.298 543.754, 743.678 554.078, 744.785 555.185 C 745.559 555.959, 749.136 555.616, 757.394 553.978 C 771.439 551.192, 772.242 551.515, 771.795 559.787 L 771.500 565.254 756.737 569.817 L 741.975 574.380 740.889 578.411 C 740.292 580.629, 739.964 585.621, 740.160 589.507 C 740.712 600.429, 745.028 604.901, 755.080 604.965 C 760.468 604.999, 760.870 604.809, 766.830 599.416 C 771.836 594.885, 773 594.212, 773 595.848 C 773 597.912, 777.700 601.945, 779.500 601.426 C 780.050 601.268, 784.438 599.967, 789.250 598.537 L 798 595.936 798 591.537 C 798 587.738, 797.694 587.096, 795.750 586.820 C 793.534 586.505, 793.491 586.223, 792.920 568 C 792.602 557.825, 792.264 549.361, 792.170 549.190 C 791.116 547.272, 780.878 537.471, 778.813 536.403 C 775.072 534.469, 769.216 534.749, 757.657 537.414 M 897.900 539.750 C 897.323 541.263, 896.591 545.562, 896.275 549.304 L 895.701 556.109 901.100 555.474 C 904.070 555.124, 907.063 554.664, 907.750 554.451 C 909.265 553.981, 909.364 548.850, 907.956 543.779 C 906.146 537.264, 899.818 534.728, 897.900 539.750 M 648.067 544.553 C 642.329 545.880, 637.342 547.311, 636.986 547.733 C 634.608 550.546, 634 558.744, 634 588.021 C 634 619.047, 633.983 619.295, 632.038 617.534 C 628.215 614.074, 627.496 609.489, 627.569 589 C 627.608 578.275, 627.950 568.277, 628.331 566.781 C 628.932 564.419, 628.598 563.843, 625.780 562.386 L 622.538 560.710 616.305 567.519 C 608.837 575.678, 607.216 578.861, 605.431 588.871 C 602.553 605.002, 604.330 623.328, 609.536 631.222 C 613.103 636.629, 617.152 638.453, 625.500 638.415 C 633.264 638.379, 639.344 636.552, 653.926 629.872 L 663 625.715 663 619.358 C 663 615.861, 662.888 613.007, 662.750 613.017 C 662.612 613.026, 657.550 614.598, 651.500 616.511 C 645.450 618.424, 640.156 619.991, 639.737 619.994 C 639.317 619.997, 639.654 618.370, 640.487 616.378 C 641.713 613.443, 642 607.559, 642 585.378 L 642 558 645.906 558 L 649.812 558 650.459 563.250 C 651.530 571.943, 652.077 573.905, 653.317 573.492 C 653.968 573.276, 656.370 572.621, 658.655 572.037 L 662.809 570.974 663.425 560.237 C 663.763 554.332, 664.213 547.813, 664.425 545.750 C 664.798 542.116, 664.712 542.002, 661.655 542.070 C 659.920 542.108, 653.805 543.226, 648.067 544.553 M 1020.704 553.428 C 1016.416 555.300, 1012.249 557.378, 1011.444 558.047 C 1008.608 560.400, 1006.749 569.720, 1007.175 579.450 C 1007.672 590.809, 1010.695 597.742, 1018.025 604.332 L 1022.949 608.760 1014.725 613.508 C 1010.201 616.120, 1006.412 618.325, 1006.304 618.407 C 1006.197 618.490, 1006.897 621.695, 1007.861 625.529 C 1009.820 633.327, 1009.191 632.819, 1025 639.358 C 1034.840 643.428, 1041.385 643.514, 1049.225 639.678 C 1052.326 638.161, 1056.250 635.341, 1057.945 633.410 L 1061.026 629.901 1060.763 595.896 L 1060.500 561.891 1047.500 555.953 C 1040.350 552.687, 1033.150 550.017, 1031.500 550.019 C 1029.850 550.022, 1024.992 551.556, 1020.704 553.428 M 77.488 558.309 C 76.749 560.485, 74.869 572.202, 75.204 572.538 C 75.386 572.719, 81.348 575.316, 88.455 578.308 L 101.376 583.749 95.540 585.445 C 84.961 588.521, 82 594.218, 82 611.500 C 82 627.044, 86.044 638.548, 94.911 648.226 C 103.178 657.249, 115.042 661.899, 133 663.154 L 137.500 663.468 137.792 657.447 L 138.084 651.426 127.526 648.195 L 116.968 644.963 118.484 642.031 C 119.709 639.662, 120 634.709, 120 616.214 L 120 593.328 130.403 593.791 L 140.806 594.254 142.083 588.377 C 142.785 585.145, 143.530 583.253, 143.738 584.173 C 143.947 585.094, 145.216 586.567, 146.559 587.446 L 149 589.046 149 626.829 L 149 664.611 151.496 667.994 C 154.836 672.521, 155.407 672.794, 162.968 673.479 C 166.561 673.805, 170.738 674.269, 172.250 674.511 C 174.897 674.933, 175 674.786, 175 670.590 C 175 667.043, 174.534 665.925, 172.500 664.592 L 170 662.954 170 644.538 L 170 626.123 174.681 625.421 C 178.952 624.780, 179.564 624.955, 181.681 627.415 C 183.976 630.084, 184 630.373, 184 655.838 C 184 675.041, 183.635 682.951, 182.559 687.032 L 181.118 692.500 184.422 695.846 C 187.634 699.100, 187.808 699.150, 190.674 697.669 C 194.700 695.587, 199.773 690.284, 202.147 685.676 C 203.989 682.098, 204.097 680.095, 203.808 654.676 C 203.508 628.172, 203.442 627.407, 201.155 623.729 C 198.211 618.993, 193.528 615.389, 187.195 612.982 L 182.272 611.111 176.046 614.056 C 172.622 615.675, 169.568 617, 169.259 617 C 168.950 617, 169.004 610.136, 169.378 601.747 L 170.059 586.495 167.279 583.246 C 164.821 580.372, 163.634 579.881, 157 578.994 C 152.875 578.443, 148.262 577.733, 146.750 577.417 C 144.408 576.927, 144 577.168, 144 579.043 C 144 580.750, 143.704 580.999, 142.684 580.153 C 141.961 579.553, 137.186 578.588, 132.074 578.008 C 122.044 576.872, 117.457 575.222, 92.196 563.663 C 82.844 559.384, 77.752 557.530, 77.488 558.309 M 1029.885 562.750 C 1027.865 567.961, 1027.598 583.920, 1029.411 591 C 1031.568 599.423, 1033.458 601.433, 1037.797 599.921 L 1041 598.804 1041 582.475 L 1041 566.146 1037.272 563.073 C 1032.678 559.286, 1031.251 559.224, 1029.885 562.750 M 553.532 569.505 C 548.049 571.977, 543.437 574, 543.282 574 C 543.127 574, 543 576.025, 543 578.500 C 543 582.833, 543.111 583, 546 583 L 549 583 549 621.465 C 549 658.470, 549.073 659.969, 550.934 660.965 C 554.136 662.678, 556.501 662.189, 565.957 657.858 L 575 653.715 575 649.358 C 575 645.182, 574.874 645, 572 645 L 569 645 569 606.557 L 569 568.113 566.777 566.557 C 565.555 565.701, 564.318 565.002, 564.027 565.005 C 563.737 565.008, 559.014 567.033, 553.532 569.505 M 1085.622 571.629 C 1075.564 574.866, 1073.578 576.857, 1072.134 585.153 C 1068.057 608.564, 1075.285 625.907, 1092.543 634.119 C 1097.787 636.615, 1100.206 637.082, 1110.854 637.654 L 1123.122 638.314 1122.811 633.472 L 1122.500 628.631 1111.500 625.836 C 1098.509 622.534, 1095.119 619.833, 1093.027 611.113 C 1092.338 608.242, 1091.950 605.717, 1092.163 605.503 C 1092.481 605.186, 1113.574 609.331, 1122.902 611.544 L 1125.303 612.114 1124.732 603.307 C 1123.684 587.144, 1118.321 577.815, 1106.757 572.036 C 1099.398 568.359, 1095.987 568.294, 1085.622 571.629 M 766.070 576.554 C 760.131 578.947, 758.674 581.120, 759.670 586.099 C 760.416 589.830, 762.101 590.615, 765.946 589.023 C 770.810 587.008, 772.147 584.787, 771.806 579.292 L 771.500 574.366 766.070 576.554 M 1094.076 580.299 C 1093.596 581.564, 1092.886 585.548, 1092.500 589.152 L 1091.799 595.706 1095.649 596.342 C 1097.767 596.692, 1100.737 596.983, 1102.250 596.989 C 1104.764 596.999, 1105 596.678, 1104.994 593.250 C 1104.986 587.408, 1103.176 582.283, 1100.331 580.045 C 1096.951 577.387, 1095.156 577.460, 1094.076 580.299 M 108.591 589.221 C 105.963 593.232, 104.772 602.731, 105.169 616.524 C 105.516 628.578, 105.766 629.993, 108.522 635.524 L 111.500 641.500 111.767 615.067 C 111.921 599.836, 111.642 588.242, 111.110 587.710 C 110.545 587.145, 109.567 587.731, 108.591 589.221 M 382.308 602.076 C 375.463 608.058, 374.230 611.110, 377.056 615.079 C 379.624 618.685, 384.785 623, 386.530 623 C 388.724 623, 398.893 612.762, 399.549 609.891 C 400.045 607.725, 399.298 606.413, 395.138 602.141 C 392.383 599.314, 389.677 597, 389.123 597 C 388.569 597, 385.503 599.284, 382.308 602.076 M 509.500 607.494 C 506.200 608.228, 500.151 609.891, 496.057 611.190 L 488.615 613.550 486.851 620.525 C 484.433 630.085, 485.247 630.886, 494.618 628.166 C 498.403 627.067, 503.656 625.731, 506.291 625.197 C 512.448 623.948, 514 625.306, 514 631.941 L 514 636.738 501.250 641.506 C 482.733 648.429, 483.474 647.912, 482.110 654.846 C 479.922 665.966, 482.589 674.046, 489.449 677.080 C 492.968 678.637, 494.645 678.821, 498.628 678.085 C 502.763 677.322, 504.271 676.340, 508.603 671.593 C 511.409 668.517, 513.997 666, 514.353 666 C 514.709 666, 515 666.890, 515 667.977 C 515 669.064, 516.103 670.677, 517.452 671.560 C 519.793 673.095, 520.344 672.970, 529.702 668.790 L 539.500 664.413 539.801 660.342 C 540.084 656.513, 539.920 656.234, 537.051 655.660 L 534 655.050 534 637.003 L 534 618.955 529.919 614.527 C 526.229 610.525, 518.811 605.877, 516.434 606.079 C 515.920 606.123, 512.800 606.760, 509.500 607.494 M 299.250 611.706 C 297.374 612.067, 297 612.789, 297 616.049 C 297 619.604, 297.363 620.145, 301 622 L 305 624.041 305 658.944 L 305 693.847 307.589 696.923 C 309.973 699.757, 310.674 700, 316.449 700 C 319.899 700, 324.836 699.710, 327.422 699.356 L 332.123 698.711 336.061 690.878 C 339.823 683.397, 340 682.616, 340 673.513 L 340 663.983 345.750 664.618 C 348.913 664.968, 351.911 665.310, 352.412 665.377 C 353.311 665.498, 354.209 662.202, 355.334 654.646 L 355.908 650.792 347.954 651.154 L 340 651.515 340 638.257 C 340 623.366, 339.327 624.398, 348.243 625.620 L 352.765 626.240 353.441 633.097 C 353.813 636.868, 354.428 640.139, 354.808 640.366 C 355.189 640.592, 357.805 640.551, 360.621 640.274 L 365.742 639.770 366.456 626.303 C 366.848 618.896, 366.933 612.600, 366.643 612.310 C 366.354 612.021, 359.083 612.114, 350.487 612.516 C 334.876 613.248, 334.854 613.252, 333.678 615.875 C 332.880 617.652, 332.339 629.836, 332 653.615 L 331.500 688.731 329.250 687.898 L 327 687.064 327 652.755 C 327 616.348, 326.976 616.145, 322.163 612.250 C 320.674 611.045, 304.655 610.665, 299.250 611.706 M 1032.750 617.506 C 1027.938 621.067, 1024.005 624.323, 1024.011 624.741 C 1024.028 625.933, 1038.099 635.057, 1039.031 634.481 C 1040.491 633.578, 1042.111 623.417, 1041.800 617.114 L 1041.500 611.030 1032.750 617.506 M 448.531 621.674 C 447.447 621.981, 443.847 624.651, 440.531 627.609 C 434.978 632.561, 434.459 632.817, 433.976 630.834 C 433.688 629.649, 432.338 627.868, 430.976 626.876 C 428.563 625.117, 428.258 625.144, 419 627.912 L 409.500 630.753 409.198 635.300 C 408.927 639.391, 409.128 639.880, 411.198 640.174 L 413.500 640.500 413.767 665.176 L 414.035 689.851 417.157 692.479 C 418.875 693.924, 420.780 694.925, 421.390 694.703 C 422.001 694.481, 426.438 693.028, 431.250 691.473 L 440 688.648 440 684.343 C 440 680.585, 439.682 679.958, 437.500 679.411 L 435 678.783 435 660.487 L 435 642.190 439.528 639.536 C 444.561 636.587, 447.453 636.831, 448.378 640.283 C 448.705 641.502, 448.979 652.037, 448.986 663.693 C 449 684.453, 449.045 684.918, 451.223 686.443 C 454.396 688.666, 456.546 688.415, 466.057 684.715 L 474.500 681.430 474.801 677.350 C 475.084 673.513, 474.921 673.234, 472.051 672.660 L 469 672.050 469 651.993 C 469 630.212, 468.316 626.564, 463.661 623.514 C 461.059 621.809, 451.965 620.704, 448.531 621.674 M 234.500 625.928 C 227.479 628.431, 219.799 632.448, 217.843 634.642 C 215.168 637.642, 213.766 644.802, 213.758 655.500 C 213.749 668.838, 216.125 675.287, 223.913 683.067 C 232.365 691.510, 239.610 693.355, 255 690.983 C 266.623 689.192, 266.151 689.465, 265.806 684.750 L 265.500 680.567 254.500 679.254 C 248.450 678.532, 242.564 677.469, 241.419 676.892 C 238.471 675.406, 236.090 670.936, 235.343 665.483 L 234.701 660.801 242.100 661.373 C 246.170 661.688, 253.662 662.216, 258.750 662.548 L 268 663.150 267.980 660.325 C 267.935 653.881, 265.792 643.225, 263.560 638.350 C 260.764 632.243, 255.174 627.723, 247.655 625.490 C 241.518 623.668, 240.773 623.693, 234.500 625.928 M 380.750 632.269 L 372 634.309 372 638.635 C 372 642.416, 372.315 643.041, 374.500 643.589 L 377 644.217 377 669.058 L 377 693.898 380.411 696.500 L 383.821 699.101 390.161 697.501 C 403.306 694.184, 403 694.376, 403 689.422 C 403 685.372, 402.790 685, 400.500 685 L 398 685 398 659.955 L 398 634.909 395.545 632.455 C 392.681 629.590, 392.261 629.585, 380.750 632.269 M 236.119 638.443 C 235.503 640.886, 235 644.936, 235 647.443 L 235 652 241.638 652 L 248.275 652 247.619 646.414 C 246.586 637.622, 244.082 634, 239.037 634 C 237.742 634, 236.924 635.246, 236.119 638.443 M 507.500 649.284 C 501.547 652.487, 501.501 652.546, 501.593 656.850 C 501.675 660.647, 502.961 662.927, 505.053 662.985 C 505.357 662.993, 507.495 661.611, 509.803 659.913 C 513.835 656.948, 514 656.615, 514 651.413 C 514 648.436, 513.888 646.013, 513.750 646.028 C 513.612 646.044, 510.800 647.509, 507.500 649.284" stroke="none" fill="#000000" fill-rule="evenodd"/>
    </g>
    <filter id="shadow3">
        <feDropShadow dx="15" dy="17" stdDeviation="0"
                      flood-color="#EFE8DE" flood-opacity="1"/>
        <feDropShadow dx="-15" dy="-15" stdDeviation="0"
                      flood-color="#EFE8DE" flood-opacity="1"/>
        <feDropShadow dx="-10" dy="-12" stdDeviation="0"
                      flood-color="#EFE8DE" flood-opacity="1"/>
        <feDropShadow dx="12" dy="-10" stdDeviation="0"
                      flood-color="#EFE8DE" flood-opacity="1"/>
        <feDropShadow dx="5" dy="" stdDeviation="0"
                      flood-color="#EFE8DE" flood-opacity="1"/>
        <feDropShadow dx="3" dy="-7" stdDeviation="0"
                      flood-color="#EFE8DE" flood-opacity="1"/>
    </filter>
</svg>