<svg id="Graphic_Elements" data-name="Graphic Elements" xmlns="http://www.w3.org/2000/svg" viewBox="0 0 1200 1200">
    <path id="path16405" d="M422.1,803.68c-9.09-6.1,9.13-18.68,15.34-14.11-9.45,12.82-20.37,24-39.81,26,6.74-5.5,12.23-12.34,24.47-11.88Zm16.26-36.19c0,6.41-9,19.67-21.09,19.4,5.29-8.39,14.48-12.51,21.1-19.41Zm223.77-58.91c-5,6.79-8.6,15-15.58,19.63,3.31-8.59,7.27-16.47,15.58-19.62ZM72,663.67c-12.2-20-9.17-47.39-10.05-68.66,5,26.6,11.31,44.35,13.5,74.33l-5.52-.23c6.65,2.15,6.16,10.86,6.59,18.72-8.65-.8-10.39-21.06-4.52-24.14ZM394.2,588.59c-19.51,31.83-31.32,60.61-62.37,80.38-1.43-6.53,7.76-11.43,13.65-17.87,6.65-7.26,15.22-16.56,21.33-24.93,9.43-13,13.1-31.51,27.36-37.59Zm123.72-48.31c-4.28,17.81-11.19,49.41-28.3,59.68,9.38-20,18.36-40.36,28.3-59.69Zm29.47-175.83c-.31,8-11,4.74-13.34,10.51-4.19-5.31,9.25-7.83,13.35-10.51Zm-57.22,1.31C448.78,382.06,401.24,438,380.32,479.2c-3.71,7.31-2.56,18.82-13.73,19.72,23.55-50.73,52.78-95.31,95.58-125.11-62.67,27.46-82.33,101.67-120.82,155.4,22.29-58.51,52-109,92.83-147.35-75.79,47.84-97.72,170.91-154.12,246.23,25.16-11.77,34.77-57.13,60.29-74.94-17.66,26.35-31.84,56.48-53.08,78.93,9.45.63,16.81-17.62,25-24.77-1.66,13-16.38,28.38-23.87,41.42,26.87-18.92,39.65-53.13,64-74.79-15,33.08-39.18,56.19-58.84,84.23,15.37-12.81,28.64-27.89,40.59-44.42-2.61,17.71-21.34,34.53-33.37,48.4,25-13.89,45.59-49.19,64.05-76.63,6.25,5.1-5.73,19.64-12,23.48-8.22,23.78-26.23,36.92-39.2,55.53,13.89-1.58,15.52-16.48,26.69-21-.25-5.41,4.4-5.48,4.15-10.89,16.24-10.57,19.23-35.54,36.89-44.57-17.94,32-35.34,55.13-56.84,80.62l-14.73-.61c41.4,13.06,87.38,3.12,120.36-11.58-1.12-1.92-4.16-2.08-3.45-5.68,12.29-13.39,27.29-28.13,37-46.4,8-15.11,8.46-37.58,25.86-45C474.22,589,462,621.83,441.61,645.9c17.52-8.54,23-30.18,38.58-40.81-7.64,23.12-24.7,36-37.28,53.77,16.69-9.45,32.27-36.77,46.57-55.23,5.13,7.69-8.61,17.17-14,25.24C468.37,639.61,464.39,653,454,657.48c19.42-7.13,33-37.24,46.65-57.07,2.09,16.75-20.5,39-31.76,54,21.27-5.1,28.17-42.5,46.64-57.07,5,4.36-3.46,10.23-4.3,14.58,7.68-1.29,5.56-13.21,13.51-14.19,5,6-4.8,7.58-4.3,14.57,12-9.41,20-23.18,23.86-41.42-9.64,4.92-6.72,23.49-19.49,25,7.94-17.67,14.33-37,24.32-52.47,1.06,9.51-4.38,11.92-4.53,20.1,8.7-2.74,5.16-18.78,15.58-19.64,4.35,5-4.26,6.68-4.22,12.73,2.92,4.29,7.15-6.2,7.82-10.73,9.65,4.68,5.09-4.13,14.89-3.07-.7,8.22-5.24,12.27-9.9,16.18,4.34,1.45,13.05-8.85,15.42-16-12.91-7.6-40.57-1.64-43.49-18.41,9.78,5.36,25.88,9.62,34.59,10.66-8.76-9.06-29.24-7.33-34.21-19.87,22.57,6,61.88,19.79,83.92,21.94-3.85-6.83-12.14-2.73-16.34-6.21,6.19-6.83,13.22.64,20.25.84,11.52.34,22.74-6.66,35.37-7.74,21.25-1.83,46.18,4.85,66.73-8.28-4.1-3.62-7.89-3.42-14.8,1.22.29-9.67,11.56-23.09,21.47-28.61-2.74,8.57-9,13.28-12,21.63,4.06-.77,17.13-8.28,15.65-21.48,3.88-.62,4.82,1.47,7.28,2.15,3.4-9.14-.91-26.65,8.6-29.15,1.71,10.81,1.11,23.76,2.22,35.13,6.37-4.62,3.7-19.07,10.21-23.54,4.9-.39-2.15,10.24,5.21,7.59-5.79,3-5.72,5.12-4.22,12.73,3.76,3.95,13.81-11.79,18.72-6.59-2.63,8.69-15,6.83-19,14,5.91,5.13,15-11.07,20.56-6.52-3.87,9.9-15,11.86-21.1,19.4,8.48,3.1,20.5-15.77,30-11.66-5.54,8.74-14.18,14.1-24.7,17.42,1.51,3.33,7.37,2.66,5.13,9.43,31,8,79.87,30.79,112.07,10.21,25.56,5.27,52.46-13,46-42.34C937,542,885.93,540,852.62,519.19c-6.2-4.92-6.07-15.66-15.88-17.26-1.23-18.47,9.26-31.06,23.71-37.74,16.51,6.65,40.77,6.16,58.53,11.67-10.32-12.24-38-14.27-54.7-15.2C855.51,451,841.79,446,830.15,439c-72.07-19.59-177.72-21.86-252.75-41.89-5.51,1.37,4.15,2.93,1.53,7.44-20.5,8.52-30.56,28.37-47.8,40.43C543,427,555.25,409.57,575.39,400.67c-3.71-8.28-13.07-1.88-11.2,3.22-19,9.46-30.25,27.41-47.71,38.58,9.32-18.09,23.69-30.7,40.43-40.73-1.56-3.28-5.59-4.3-10.89-4.14.69,2.92,5.72,1.81,3.37,7.52-25.24,9.76-36.6,34.62-57.38,49.24,13.24-20.25,30-36.63,48.26-51.47-25.26,7.84-44.17,39.23-66.9,56.23,10.9-21.52,28.25-36,44.57-51.63-27.79,10.84-38.64,40.1-63.13,54.54,13.29-20.84,31.19-36.67,48.33-53.31C478.79,422,462,443.5,443.69,463.41c4.47-18.88,28.11-33.59,40.81-49.93-26,11.54-39.77,36.31-59.45,54.69,21.39-40.27,56.66-75.69,96-90.06-8.52,10.63-24.26,13.41-32.38,24.47,17.59-4.63,39-21.79,62-26.92-3.54,8.35-14.73,8.37-19.11,15.8,28.58-5.92,80.82-4.36,110.32,8.29,5.56-1-1.59-4,.3-7.36,5.69-1.12,5.29,3.4,11,2.3-.8-6.34-5.8-8.83-4.83-16.8,7.8,2.85,11.75,9.25,19.79,11.89.28-10.3-8.57-12.18-8.27-22.48,14.5,6.13,17.11,23.2,30.06,30.76,9.59-3.89.69-9.77,4.38-16.41,8.06-.34,7.41,7.34,10.58,11.5,4.8-5,2.48-16,11.89-19.79,4.67,2.57,5.63,4.05,3.32,9.36,12.65,2.11,8.63,4.81,18.25,4.44-.77,7.5-5.22,11-8,16.27,8.1-1.45,9-10.71,15.34-14.12,7.68,2.92.1,13.06-2.53,16.49,9.2,4.2,8.61-18.82,21-17.56,1.24,7.75-3.93,8.55-4.29,14.57,5.64-4.12,7.31-12.58,17.11-12.19.64,8.39-4.17,10.87-6.22,16.34,8-2.9,9.89-12.35,15.5-17.8,6.86-1,4.32,6.64,7,9.51,6.51-1.9,4.58-13,13.42-12.35-1.51,10.55-9,14.58-10.28,25.39,10.26-6.81,10.73-24.26,23.32-28.53,1.84,7.16-7.61,16.9-10.28,25.39,17.18-5.71,13.47-34.12,32.91-37.36-8.43,17.14-16.07,35.14-29.61,46.72,20.77-8.21,26.76-32.5,39-50,10.18,7.36,5,30.09,2,40.65,10.19,2.1,4.74-12.81,11.66-14.27s2.94,9.85,1.4,11.12c2.19,4.09,6.26-5.87,13-3.14.07,2.62.08,5.23-2.07,5.45,2.86,4.83,5.24-7,11.27-5.06.06,4.54-.08,8.88-2.3,11,3.31,4.71,5.37-8.16,13.12-5,1.12,5.68-3.41,5.28-2.3,11,7.38-1,4.91-12.63,13.42-12.35.33,6.77-2.47,10.14-4.3,14.58,12.7,1.61,6-17.83,20.87-13.89-.53,5.2-3.69,7.53-4.22,12.73,6.3,4.21,6.47-14.71,17.11-12.19,1.23,6.44-3,7-2.38,12.81,6.81,5.39,4.53-15.54,15.26-12.27,3.23,3.73-.94,10.28-2.45,14.65,8.8-2,7-15.51,17.25-15.88-.52,5.84-4.51,7.93-4.29,14.57,7-2.7,6.11-13.88,13.57-16,3.19,4.86-3.88,11.44-4.44,18.26,7.11,3.82,6.53-17.23,17.26-15.88.69,7.16-3.66,8.85-2.53,16.49,14-11.54,6.74-27.47,14.65-41.8,10.12-1.53-.79,6.2,9,5.9-11.29,14,5.43,22.77.39,35.06,3.08,3.85,7.6-7,11.42-8.75,7,2-1,10.3-2.45,14.65,7.16-1.83,7.73-10.83,17-10.35,1.21,7.76-3.94,8.55-4.3,14.58,8.31,1.34,5.33-9.61,13.27-8.67,3.88,4,0,8.2-2.3,11,6.69-.44,9-5.57,13.27-8.67,5.62-1.63,3.09,4.24,3.38,7.52,5.76,1.13,4.4-5.48,11.2-3.23,3.3,3.65,0,4.64-.38,9.21,10.61-8.84,23.06,1,35.28-5.9,4-.71,3.4,2.78,3.45,5.68,5.48-.95,7.95-11.57,13.19-6.83a8.74,8.74,0,0,0-2.07,5.45c8.64-4.08,8.13-18.11,21-17.57,2.57-11.8-4.12-15.09-4.53-24.16,30.62,23.78-4.52,49.47-26.46,59.75-64.31,2.38-117.6-18-187.71-9.67-1.39-6,6.18-2.27,5.83-7.13-3.09-5.69-5.85,5-13,1.3-8.26-.21,2.76-5.31,2.22-9.13-5,4.16-8.49,10-17,10.36-4.32-4.53,2.9-3.31,2.22-9.13-6.13,2.32-6.3,11.11-17,8.51-.51-7,4-8.49,6.07-12.65-7.93,1.65-8.15,11.67-17.11,12.19-3.31-3.65,1.23-3.28.38-9.2-7.37,4-7.5,10.75-18.71,6.59,14.4,7.85,42.72,4.69,60.67,4.38-8.65,8.87-17.48,1.48-33.44,6,17.15,11.19,36.9,7.4,52.62,20.64,20.53,17.29,11.84,54.51-6.68,71.64-18.52,5.53-37.35,10.72-57.76,14.19-4.57,31.6-26.1,44.76-45,60.83,15.59,14.36,6.52,41.45,6.51,64.82-7.8,3.06-9.34,12.94-20.79,12-13,12.91-5.36,37.39-27.54,41.27,2.22,10.94,6.11,20.34,9.82,29.91-6.28,33.59-29,49.28-43.65,73.8C704.2,864.49,635,877.38,566.82,872.42c-77.31-5.63-146.43-1.13-211-27.24-27.48-3-48.67-11.87-69.19-21.33-13.2,15.45-27.09,57.79-56.84,36.36-6.48-1.27-4.8,6.33-11.28,5.06,5.8-13.5-11.33-18.31-17.34-26.54,2.06,7.55,8.06,11.47,12.2,17.1-6.15,2.7-20.51,3.85-29.69,4.28-12.89-17.06-32.12-28.28-44.18-46.11,21.22,11.75,33.2,32,55.38,42.89-14.78-24.76-46.06-34.35-54.46-65,13.74,12.15,24,27.53,37.05,40.28-1.4-18.05-25.48-38.51-36.74-47.64,15.14-6.08,24.65,23.21,37.43,31.06,1.81-17.29-28.07-33.74-34.59-54.92,14.71,6.53,18.42,23.18,31.9,30.84,3.16-2.45-1.78-12.42-3-16.72a443.9,443.9,0,0,1-77.32-91.75c-10.93,5.38,1.28,18.8,6.29,26.08,11.49,16.68,31.74,35.51,38.43,51.4-19.75-14.29-28.49-38.71-49.47-51.86,7.09,24.23,34.33,45.08,48.78,68.43-19.23-7.19-29.83-37.4-47.63-51.78,1.76,19.62,23.47,36.22,32.75,54.84,6.68,2.3,13.61,7.09,10.51,13.35-16.69-15.92-32.81-32.37-42-55.23-4,36.73,17.13,58.32,41,77.32.8,9-3,12.92-.77,18.41-3.73-.69-3.4-5.13-7.13-5.83-5.52,4.93,6,12.29-.77,18.41-6.05-4.26-4.33-4.64-10.74-7.82-6.25-28.27-45.88-62.46-36.35-101.11,10-14.22,4.52-35,4.14-55.15-.86-46,2.43-93.88-7.28-134.93,4.23,2.88,3.27,4,9.13,2.22,14.37,37.89,34,69.79,60.36,100.26-2.19-28.09-27.49-50.23-43.1-71.88-9.14-27-26.37-49.94-31.91-75.1C95.37,541.26,109.35,590.37,142,622.3c-.85-24.59-19.7-32.62-25.46-52.7,9.85,5.1,12.76,16.59,21.17,23-.28-16.7-16.22-26-20.17-47,10.57,6.21,12.63,20.25,22.86,26.77-.14-27.61-27.19-45.8-33.83-73.34,14.23,3.45,15,34.58,29.53,43.65,4.35-1.89-2.3-7.24,4.07-9,8.83,7.81,1.46,29.32,2,40.66.12,2.89,2.93,4.85,3.37,7.52,14.5,86.37,24.85,179.46,50.16,256.59,1.65-87.6-21.86-176.46-31.75-255.83,9.61,5.59,6.32,20.38,8,29.85,8.25,47.29,22.27,104.67,24.75,157.79,9.43,9.29,2.65,23.21,11.51,33.67-1.72,2-5.09-1.35-4,7.22,1,6.16,12.58,2.58,14.43,8,7-.85-1.68-7.77,7.67-7l-.31,7.36c4.51-.89,8.19-.76,11.35-6.9-12.27-11.15-30.81-25.94-29.53-43.65,8.88,6.59,9.11,21.12,19.18,26.61-1-10.68-12.17-20.16-9.9-28.07,6.15,4.18,9.12,13.7,13.81,22.71,5.68,10.92,15.58,20.67,10,26.23,6.83,1.1,12.13,2.61,23.85,2.84-34.29-45.17-53.36-104.34-64.81-170.53,8.3,1.69,4,8.94,5,13.12,13.32,54.42,31.87,108.1,63.82,150.2-2.85-11.56-16.09-28.86-22.17-43.34,6.67-1.27,8.74,4.52,12.89.53-1-6.77-7.35.09-14.65-2.45-43-81.27-47.44-205-35.58-296.56-10.47,4.76-18.86-.06-29.69,4.28-18.68,48.29,9.09,103,12,153.57-6.73-8.12-8.91-22.12-11.43-35.51-4.54-24.13-9.71-48.16-9.58-79.71-8.67,13.49-1.28,46.92-2.77,66.28-7.61.17-8.7-11.94-4.83-16.8-13.46-41.19,1.82-91.61,20.18-130.1-2.86-4.83-5.24,7-11.28,5.06,4.38-5.31-10.12-5.1-16.33-6.21,4.25-10.77,27.48-.91,31.83-11.58-9.05-8.26-27.64,7.06-32.83-8.75-2.17.19-1.69,3.29-2.07,5.45-4.47.55-3.86-3.53-9.13-2.23l.39-9.2c39.4,3.94,95.2-1.66,99.15,50.22,68.84-47.37,156.8-73.11,249.39-98.41,34.54-9.44,66.58-25.95,106.32-28.76,53.26-3.76,107.18,2,160.33,3,32.24.61,65.41-1.21,99.49,2.31,5.15,1.15,7.63,4.78,12.65,6.06,77.7-.86,148,22.59,220,31.3,10.39,11.79,35.9,4.83,43.34,22.1-43.84-18.43-97.84-27.71-144.75-22.64-38.26-19.18-90-18.2-133.55-25.86-1.92,1.12-2.08,4.16-5.67,3.46-24.22-13.06-72.44-.25-106.4-13.66-25,9-49.26,3.59-73.79.6C574.25,322.8,490.61,358,440,415.23c-15.39,23.68-33,45-50.71,66.12,21.9-51.22,59.07-85.88,100.72-115.67Zm337,54.63c10.73-7.6,25.64-20.87,21.87-37.82-5.65,14.38-13.4,26.48-21.88,37.82Zm-43.78-11.05c6.43.58,6.06-6.24,9.58-8.82-1.11-.16-2.16-.37-1.76-1.92l-3.68-.15c.62,5.82-2.93,7.08-4.16,10.89Zm-432.49,66.8c-34.27,45.5-49.74,111.44-85.77,155,23.66-13.4,30.86-44.71,48.79-64.35,27.42-65.78,50.78-136,101.42-176.5-.2-2.18.54-5.22-1.61-5.6-27.82,23-51.23,50.82-62.85,91.43Zm163.7-78c5.51-.43,11.25-.59,13.11-5-6.19-.31-9.86,2.13-13.12,5ZM838,426.38c1.72-2.63,3-5.72,7.6-5.22-4.5-5.53,3.66-10.45.54-12.89-2,5.56-11.54,13-8.14,18.11ZM346.41,452c11.45-3.9,17.52-19.88,25.24-30.31,8-10.85,21.4-21.87,19.71-30.52C375.72,410.72,354,423.7,346.42,452ZM221.05,671.76c5.06-1.12-1.68,8.62,3.38,7.51,7.57-16.15,27.32-29.3,27.77-46.79-10.39,13.09-18.27,28.89-31.15,39.27ZM372.57,399.6c-66.93,67.74-88.2,185.11-147.37,261.27,26.15-24.82,39.43-63.63,62.83-91.43-7.57,24.49-23.07,40.36-33.91,61.29,37-36.12,61.13-99.84,85.54-149.51,2.76-5.62,8.65-21.57,6.59-25.54-25.27,30.26-33.72,78.81-58.07,110.07,21.7-54.78,49.51-119.32,84.39-166.15ZM226,642.45c-4.76,6.68-12.47,1.24-7.91,12.58,41-43.29,68.28-118.23,96.13-182.26,13.27-21.5,31.19-48.2,39.74-68.42-57.46,63.26-79.22,165.36-128,238.09Zm-7.06-7.68c43.85-42.14,55.62-119.15,90.14-171.44,1.93-14.51,27.12-40.5,26.08-50.55-53.33,57.45-73.2,159.51-116.21,222Zm76.25-192.3c.58-4,8.72-9.57,4.22-12.74-36.69,44.82-63.64,110.43-80.86,170,10.5-10.66,16.13-24.29,21.94-39.66,2.81-7.44,2.15-17.1,4.68-23.78,6-15.72,16.9-31.14,24.09-46.94,7.29-16,13.5-34.49,25.77-43.19-28.29,58.11-51.09,111.68-75.41,172.05,11.07-.8,8.55-16.36,17.42-19.55,22-62.69,47-122.12,80.93-171.83-.12-2.25-.35-4.38-3.53-3.84-7.49,5.36-9.28,16.9-19.29,19.49Zm-73.48-6.76c-.28-6.83-7.54-7.23-10.59-11.5C211.44,431,217,432.89,221.68,435.71Zm-6,143.6c.38,4.28-5.41,1.82-5.76,5.3,4.4,5-4.52,15.78,2.84,20.4,12.53-61.71,43-114.63,71.43-164.84-31.73,36.7-53.63,84.1-68.51,139.13ZM229.89,460c1.18-10.53-1.95-17.1-8.37-20.64C226.6,444.17,221.36,458.43,229.89,460Zm688.92,19.52c-11.73-1.87-35.94-10.25-40.27-7.22,13.46,1.23,28.34,10.49,40.27,7.22ZM210.55,525.62c5.26,3.19-3.33,9.36,1.4,11.12,6.93-5.94,5.87-20.57,15.73-23.32-3.92,16.66-20,39.32-15.12,52.85,12.12-43.93,39.71-81.28,52.86-117.67-15.91,16.77-24.4,51.63-41.27,61,8.13-16.19,22.17-36.19,26.08-50.55-5.59,4.18-7.09,12.82-15.34,14.11,1.07-2.68,2.92-4.52,4-7.21-8.2,3.95-24.86,8.86-21.09,19.41,2.06-4.81,3.46-10.35,9.66-10.66-5.7,21.95-16.4,23.15-16.49,41.73,9.59-9.46,10.67-28.18,21.79-36-5.94,15.17-14.62,44.16-22.18,45.17Zm716.93-32.8C903,485.68,865.93,461,850.3,485.91c5.14,2.36,12.07,3.06,14.43,8-8.19.53-9.05-2.92-14.73-.61-15.45,1.23,8.72,2.62,7.29,2.15,14.9,4.91,44.45,18.75,63.66,21.1.53-8.15-13.74-2.7-14.34-9.82,8.25-1.1,10.95,2.91,18.33,2.61,2.42-5.47,5-10.79,2.55-16.5ZM736.7,512.52c8-.28,19.2,2.91,22.25-2.76-4.36-1.3-13.46,1.76-14.65-2.45,4.23,1.36,10.19-9.23,2.22-9.13-2.56,5.55-6.67,9.42-9.82,14.34Zm180.42,7.53c-21-3.1-40.14-17.35-60.21-15.42,20.13,3.93,41.17,16.42,60.22,15.42Zm-16.71,3c-5.85-1.77-16-8.81-21.94-4.6,7.3.42,17.49,7.42,21.93,4.6ZM757.72,583.51c-7.58,2.7-8.07-10.1-12.74-4.22,3.57,3.21,8.36,5.3,8.75,11.43-5.7,1.51-6.14,8.72-13.27,8.67.63-2.16,7.7-6.65,2.22-9.13-3.1,6.94-13.34,16.23-20.78,12,6.12-5.52,12.72-10.54,19.1-15.8-22.74-26.57-73.57-38.37-113.15-28.69-16.15,8.83-39.09,48.1-17.57,67.5-13.64-19.84,3-58.19,22.71-58.07-2.33,6.34-21.73,12.86-11.89,19.79,5.62-19.21,22.5-15.88,37.82-22.4-.06,2.74-7.88,7.92-.31,7.37,6.34-.8,8.83-5.8,16.8-4.83-.88,7.27-6.31-2.33-5.76,5.29a29.78,29.78,0,0,0,27.54,3c-.29,5.31-10.58,3.93-5.91,9,7,.71,10.3-9,16.73-3-1.12,3.42-10,8.12-6,10.82.39-3.59,8.58-8.39,11.2-3.22-7.71,1.88-9.92,9.74-17.11,12.19-16.23-8.67-44.67-6.12-62.13-13.66-3.25.51-11.62,5.1-5.91,9,21.64-1,58.6-.81,71.42,12.2.67-2.11,6-8.43,7.51-3.38-.15,8.18-9.83,6-11.58,12.43,12.4,2.09,15.91-14.11,24.39-10.05-8,9.29-18.28,16.06-28.61,22.79,15.61,3.76,27.35-22.51,41.42-20.41-8.73,13-31,21.51-36.35,31.68,19.12-8.08,32.72-22.16,49.32-33,.41-6.69,8.48-15,13.34-10.51-16,17.94-32.62,35.1-55.38,45.64,21.29,1.83,34-21.91,51.09-31.07-6.65,17.15-24.18,22.47-36.44,33.53,16.22,3.27,24.42-18.19,39.66-22.32-3.77,10.65-15,13.24-19.41,23.16,15.1-.14,19.39-7.21,30-11.66,38-16,91.24-32.8,93.75-80.92-27.42-3.77-49.73-4.83-69.58-12.12,5.35,1,13,5.17,8.83,9.58-9.58-4.19-23.5-13.75-34.6-10.66,7.36,3.3,23.64,7.7,21.56,13.81C777.34,549,762.89,545.73,752.2,539c8.66-4.51,17.95-6.45,27.69-.69-16.55-21.52-45.82,1.58-54.23,18,11.39,5.54,32.89,1.32,36.13,18.1-10.76-2.5-18.5-7.77-25.24-14,.83,16.25,19.22,6.67,21.2,23Zm-180-16.73c1.29-8.55,3.63-3.48,5.52.23,3.37-7.47,8.95-19.17,6.37-20-.81,8.74-21.07,12.57-11.91,19.8Zm8.36,20.62c6.62-7.56,9.91-18.73,12.35-30.83-9.21,2.85-16.57,17.86-15.8,25.16.61-1.62,5.31-7.85,5.67-3.45-2,.68-4.71,9.9-2.24,9.12ZM562.89,568c2.82,9-6.71,14.37-2.61,18.34,5.46-4.33,6.09-13.92,10.05-19.87-3.47-.55-4.16,1.91-7.44,1.53Zm8.36,20.62c-8.25,2.62-13,19.23-12.12,25.32,4.93-7.47,11.25-13.44,17.41-19.56-8.22-9.78,3.39-20.6,2.92-25.7-2.1,7.8-13.63,9.62-8.19,20Zm-31.76,9.76c10.44-2.77,10.58-16.73,15.81-25.16l-5.53-.23c-2.13,9.84-7.26,16.47-10.27,25.39ZM645,588c9.73-1.32,27.39,2.3,40.43,3.53-3.1-11.91-21.06-10.13-32.6-14.26C658.79,586.82,646,581,645,588ZM93.13,600c-2.3-.5-3.65-3-3.76,1.69-1.67,9.21,2.59,13,.92,22.17,23.6,28.45,39.15,64.31,70.18,85.92-1.47-17.93-13-24.7-22.47-36-19-22.68-37.48-45.06-44.95-72,18.81,27,34.32,56.94,59.45,78.09,5.09-4.81-1.91-13.5-2.92-18.56-26.11-20.83-46.89-61.9-66.11-95C83,581,91,587.84,93.13,600Zm586.29,4.19c-27.43,0-36.2-4.73-56.92-6.07,9.36,8.66,43.7,12.66,56.91,6.06ZM522.76,645.63c7.8-3.71,16.26-6.7,20.87-13.88-2.25-.31-4.34-.74-3.53-3.84,6.4-8,16.72-19.14,15.95-28.84-6.79-2.26-5.43,4.36-11.2,3.22,3.76,7.78-1.7,14-8.05,16.26-.06-4.72,8.57-9.72,4.22-12.73-2.82,4.63-12.09,2.25-13.27,8.67,5.1,9.46-12.36,21.12-10.36,27.23,9.84-2.77,9.45-16.68,21-17.57-3.75,7.53-14.85,17.17-15.65,21.51ZM621.94,611c20.54,1.07,43.74,10,64.36,4.52-19-3.12-53.43-10.25-64.35-4.52Zm-74.55,19c.45-2.71,4.52-1.5,7.44-1.53.24-11.32,17.59-14.18,15.65-21.47-4.19,10.21-24.65,13-23.1,23ZM662,623.76c-3.58,3.82-13.6.62-16.8,4.84,14.91.81,30.34,2.19,37.12-5.86-18.65.8-51.7-10.3-62.59-2.61,16.79.54,29.34,3.55,42.26,3.6Zm-180.28,33c12.22-10.58,30.77-24.09,29.46-43-10.27,11.43-26.43,36.52-29.45,43Zm219.92,77.42c1.82-3.15,3.69-6.25,9.43-5.14-.58,1.11-4.87,6.9-.31,7.37,2-3.59,3.51-7.74,7.76-8.9,5.48,3-4.38,10.33,3.3,9.36,1.31-5.63,1-13,7.9-12.58.43,4.29-.59,7-2.23,9.13,8.28,1.94,4.69-9,11.43-8.75,5.22-.09-2,11.28,3.22,11.2,4.59-4,2.13-15.65,8.13-18.1,7.28-.21,0,13,4.91,14.95,2.58-5.53,3.17-13.23,6.29-18.17,3.9,1.72,1.15,9.55,5.06,11.27,3.27-4.79.19-16.47,8.05-16.26-.81,7.61,2.12,7.28-.53,12.89,9.48,1.32,2.92-14.79,8.13-18.1,4.83,11.68,6.25-14,14.8-1.23-1-8.76,1.65-13.61,8-14.42a9.36,9.36,0,0,0,5.29,5.75c10.58-16.86,14-35,24.17-48.78-10.21-1.23-6.74-15.05-14-19-31.33,18-56,36.44-91.74,33.06-.05,3.17-1.62,4.66-3.92,5.37-23.22-9.59-53.68-6.72-71.95.69.51,11.38-17,21-4.83,27.46.3-13.44,9.34-28.84,13.88-23.4,2.33,2.79-12.3,13.38-6.44,21.87,2.36-5.13,3.06-12.07,8-14.43,1.3,6-.57,23.24-13.74,19.72,1,3.32-5.71,7.42-.38,9.2-1-9.46,6.27-7.23,7.44-1.53-8.57,6.08-10,20-23,21.17-.2-2.18.54-5.21-1.62-5.59-4,7.88-23.31-1-29.69,4.27,30.35-5.19,61.45,23.14,95.35,13.2-6.25-2.93-8.76,1.69-12.81-2.38.08-2.69,8-5.51.24-5.52-3.18-5.77-3.1,8-9.44,5.14-.15-9.14,6.66-10.73,8.13-18.1-9.33.76-7.85,13.27-17.18,14,8.43-10.09,10.9-26.64,18.18-38-11.65,1.24-5,10.66-11.74,16.11.09-2.43-3.15-1.81-3.53-3.83,5-11.36,9.84-32.36,25.55-37.67-3.63,10.91-7.79,17.48-8.52,27.31,11.63-1,4.77-16.68,17.41-19.56-4.47,13.1-10.87,24.1-18,34.29,2.74.43,6.82-.38,7.29,2.15-4.46,2.22-4,9.8-6.14,14.5,7.15,0,6.24-18.79,15.19-10.44.25,5.41-4.4,5.49-4.15,10.9,3.32-.1,4.24,2,3.45,5.68-1.08-.12-2.21,1.37-.14,1.81Zm-203.2-80.4A95.21,95.21,0,0,0,524,616.17c-12.83,6.6-20.8,28.69-25.54,37.67Zm128-18.63c14.87,5.12,42.08,5.87,53.46.39-15.28.47-39-1.52-53.47-.4Zm-72.72,19.1c9-4.38,16.1-10.72,24.62-15.57-14.13-1.27-17.87,8.79-24.62,15.57Zm28.16-11.74c-.37,8.64-18.95,7.56-13.58,16a17.07,17.07,0,0,1,11.36-6.9c6.5,7,24,3.88,32.82,8.74-1.48-13.82-18.53-2.75-27.23-10.35,9.14-4.42,20.25-3.38,33.22-.46,1.1-1.07,4.67-8.55.38-9.21-6.48,8.29-20.75,4-36.94,2.14Zm64.2,8.22c-7-4.19-17.86-4.25-22-2.76,10,1.41,18.24,7.76,22,2.75ZM229.88,681.36c12.32-12.27,30.13-28.81,31.45-46.64-9.31,16.81-23.24,28.62-31.45,46.64Zm3.38,7.52c-3.41,1.61-10.87,1.83-5.83,7.14,16.3-6.67,36.64-35.85,41-55.46-12.11,15.69-23.33,32.35-35.21,48.32ZM132.69,712.34c-14.43-16-23.81-35.4-40.34-49.63,15.39,45.44,52,71.34,80.46,104.79-3.46-26-25.38-38.84-40.12-55.16Zm5.45,2.07c15.14,2.61,19.1,24.89,30.3,25.23-4.82-5.95-7.59-6.92-4.84-16.79-28.07-24.34-46.72-57.34-72.1-84.16,7,33.13,33.52,48.24,46.64,75.71Zm106.93.78c13.11-15.91,36.48-30.9,37.28-53.77-6.94,5.92-9.38,16.74-19.25,19.48-1.06-15.35,22.09-22.47,12.5-34.52C265.38,668,242.22,685.78,238,707.52c10-7.12,12.09-22.79,25.09-26.62,2.45,12-20.66,22.2-18,34.3Zm341.5-52.14c3.15,1.82,9.15,1,10.89,4.14-2.94,2.8-18.78-4.32-24,.85,20.46,5.37,40.79,10.86,62.06,15.49-1.4-18.53-34.18-25.93-49-20.47Zm56.7,11.58c.58-4,8.72-9.56,4.22-12.73-2.78,2.94-12.32,9.54-4.21,12.74Zm-91.45,25.68c-7.13-8,.14-31.16-2.07-38.82-9.4,10.78-2.68,20.23-5.06,33,6-1.35,2.25,6.19,7.11,5.84ZM400.4,705.07c20.05-6.43,39.89-23.33,45.87-38.66-15.19,13-30.17,26.24-45.88,38.66ZM567.55,677a402,402,0,0,1,43.8,11c-14.48,6.94-34.54-11.59-46-1.92,22.73,3.29,44.72,7.25,60.14,17.27-20.87-.54-38.2-14.1-53.08-9.6,15.35,7.12,37.9,7.63,52.85,15.12-10.52,5.62-25.63-7.9-36.82-1.54,5.66,1.29,14,.09,14.5,6.14-9.43-.66-26-10-31.22-3.15,9.9-.53,25.78,11,38.43,7.14-2-.53-4.3-3.22-1.69-3.76a39.78,39.78,0,0,1,16.49,2.53c4-5.24,4.35-14.52,11.74-16.11-8.5,1.92.69-12.43-5-13.11-16.78.29-45.52-17.24-64.12-10.06ZM242.6,729.85c2.26,8.21,4.48-2.51,5.68-3.45,17.67-13.8,43.76-36.56,44.88-59-17.82,19.75-31.28,44.25-50.55,62.43Zm151,4.46c4.11-12.24,20.75-21,21.56-30.46-21.29,12.79-32,37.1-53.7,49.41,9.36-16.77,22.3-29.64,36.74-40.89-5.57-1.57-5.54,3-11.12,1.4.09,4.59-3.13,5.57-4.06,9.05-33.7,20.46-62.61,56.39-89.91,77.39,19.84-7.31,38.7-25.92,54.77-30.91-15,12.52-31.61,23.37-45.8,36.82,18.58-3.55,32.58-22.31,48.87-21.93-2.56,1.24-9.81,7-4.15,10.89,11.14-4.6,22.68-19,32.15-19-14.74,16.07-42.12,28.62-55.16,40.12,23.77-1.12,37.3-23.59,56.3-23.47-14.92,12.65-34.19,20.57-49.32,33,17.27-1.11,23-14.8,41.19-14.88-5.5,8.77-18.56,9.33-24.7,17.41a172.64,172.64,0,0,0,60.45-34.36c.24,6.48,7.05-4.34,7.29,2.14-16.37,15.57-38.06,25.34-58.69,36.29,16.15-1.07,29.61-15.27,44.72-11.05-4.69,5.85-23.36,6.61-20.86,13.88,20.34-4.31,33.88-25.87,52.7-25.46-5.51,10-20.92,9.33-24.86,21.09,20.22-1.78,27.07-28.3,45.34-25.77C445,822.88,419.73,832.59,413,845.78c22.22-10.49,36.25-29.88,57.08-41.88-9.12,20.89-35.86,32.86-44.42,47.94,7.15-6.63,16.68-8.94,24.62-15.57,12.74-10.63,20.86-31,36.36-31.68-11.94,18.45-28.55,31.83-44.34,46.1,25-10,37.54-33.61,57.38-49.24-5.76,22.61-31.75,33.46-38.89,48.17,21.84-11.54,33.58-34.06,53.62-47.56-8,22.77-32.51,37.79-42.73,51.7C496.79,838.1,517,817.14,529.73,788l7.36.31c-2.35,6.43-5.46,12-11.66,14.27-1.82,20.56-19.22,29.05-31.38,44.8,30.82-13,49.65-46.12,55-80.7-12.51-1.42-5.73,18.14-17.33,17.72,2.3-12.9,5.51-24.8,12.43-32.68C542,742.09,541.23,744,546.6,737c-4.82.33-9.24.24-7.13-5.83-5.48-.64-6.55,6.53-11.12,1.4.13-6.91,7-6.48,7.9-12.58-8.83,0-7.45,11.14-18.8,8.44,3.48-9.06,11.67-13,20.95-15.73-4.39-4.55-10.84-.47-16.57-.69,2.39-7,11.76-6.46,15.27-12.27-12.05-1.51-15.89,16-26.24,10,3.17-7.46,12.57-8.14,17.18-14-12.27,1.43-20.14,17.84-30.14,15.34,5.32-11.55,27.65-14.82,28.68-24.62-17.51,6-28.48,19.07-45.33,25.77,10.7-15.94,29.76-22.81,43.88-35-22.33,5.88-35.05,22.2-53,32.83-4.6,5.3-9.52,20.37-19,14,13.8-17.72,33.56-28.95,49.78-44-26.41,8.49-40.56,30.32-60.91,45.41,8.93-21.1,29.28-29.76,44.27-44.26-4.34-.22-5.56,2.94-11.12,1.39-5.05,10.41-18.05,14.09-26.78,22.86-6.47,6.52-9.52,23.57-21.09,19.41,11.23-17.3,27.1-29.57,42.34-42.5-20.45,4.71-29.51,21.81-43.8,33.22-2,4.93-6.07,17.66-13.35,10.51,8.5-13.22,19.11-24.14,30.92-33.76-23.65,6.42-29.44,32.19-49.67,42.27Zm-89.6-62.77c-18,23.41-36.71,46.05-58.07,65.82,24-14.36,52.79-43.89,58.07-65.81Zm77.86,34.6c17.71-3.85,34.92-18.47,38.2-31.6-11.87,11.49-27,19.37-38.21,31.6Zm-66.37-.92c-18.46,17.77-51.3,19.92-61,47.24,10-5.78,20.51-21.29,30.37-20.86-7.24,12.66-22.13,17-28.92,30.15,12.07.29,12-12.58,22.71-13.81-2.84,9.1-10.8,12.64-13.81,21.55,11.45.86,12.41-16.37,22.71-13.8-7.72,10-10.38,13.87-17.57,23.24,10.47,1.12,10.44-9.18,20.63-8.36-3.8,6.18-17.4,11.81-15.49,17.8,9.11-4.85,14.76-13.47,26.46-15.5-3.62,8.89-14.17,10.25-19.18,17.64,16.27-.92,22.73-12.5,35.75-17,12.08-20.23,41.15-32.24,48.25-51.47-13,3.92-37.34-13.8-58.83-4.3C319.53,704.41,345.42,696,348,678.9c-10.22,6.88-18.84,25.69-32.3,22.63,3.22-6.12,11.9-6.32,13.5-14.19-12,4.27-23.35,19.49-34,18.87,5.62-5.44,9.62-12.64,13.73-19.72-13.6,12.81-31.28,31.42-40.5,42.58,15.63-10.92,27.94-25.4,47.1-23.85ZM341,713.66c17-7.18,32.13-16.39,40.11-33.37-12.5,10.8-33.68,22.42-40.12,33.36Zm18.47-1.07c15.35-6.43,34.74-18.68,38.21-31.6-13.37,9.83-28.21,18.1-38.21,31.59Zm-31.29-1.31c10.63-3.21,26.61-17.24,36.2-28-14.27,6.94-27.37,15.15-36.2,28Zm304.06,5.31c5.23,2.5,8.36,1.28,9.44-5.15l-5.52-.23c.42,3.65-2.63,3.57-3.91,5.38Zm-67,58.07c-2.63-9.65-7-18-4.46-26,4.37-13.74,17.1-10.45,22.94-19.33-26.65-2.8-36.07,30.82-18.49,45.34Zm74.81-24.55c-.62,2.13-8.43,7.31-.31,7.36,2.19-3.4,4.86-6.26,6-10.82-16.37-4.22-40.19-15.07-54.92-9.67,19.52,1.5,36.31,5.53,49.24,13.11Zm-28,50.48c-2.17.2-5.21-.54-5.6,1.61,32.07,14.27,71.18,6.69,100.72,17.11,3.12-6.28,13.61-14.65,17.18-14-1.43,8.71-8.58,11.2-15.34,14.12,11-1.19,22.27,6.6,31.3,1.31-9.91-2.51-15,1.25-20.1-4.53,8.72-4.64,9.92-17.45,21.1-19.41-2.84,3.43-8.58,13.64-6.22,16.34,6.79-6.09,10.42-15.62,19.26-19.48,0,4.67-8.21,10.11-4.22,12.73,11.8-15.17,27.19-30.89,26.23-54.24,2.64-4.4,6.77,2.31,7.45-1.52-2.72-.46-1.53-4.52-1.53-7.45-26.46-8-46.62,9.93-72.42,11.74-16.86,1.17-30.54-6.77-49.63-3.92-11.39,17.77-18,40.78-35.36,52a8.68,8.68,0,0,1,2.07-5.45c-18,.07-33.36-11.78-45.64-11.12,8.34,10.45,19.49,7.5,30.78,14.2Zm3.76-46c-13.61,1.31-17-6.75-31.14-5,3.23,8.24,20.69,3.39,23.47,12-9.78.68-19.29-8.15-27.54-3,17.71,4.36,30.81,13,51,15-1.82-5.89,0-4.18.47-11-2.87-2.67-9.43-2-10.82-6,3.28-.28,9.14,2.24,7.52-3.38-11.79-1.64-9.67-5.17-21.86-6.44-1.46,6.63,8.68,2.62,8.89,7.73Zm27.17,12.19c5-2.6,15.31-14.39,8.13-18.11.72,9.27-10.61,13-8.14,18.1ZM750,813.72c14.29-11,35.57-34.09,33.45-50.25-7,21.29-21.83,34-33.45,50.25ZM625.53,790.07c-.59-4.46,3.53-3.87,2.23-9.13C612,773,589.1,762.22,569.46,763.75c26.84,1.28,25.26,28.71,56.07,26.32Zm-45.8-7.43c-3.65-.75-17.91-6.7-18.49,1.08,5.25-4.15,15.84,1.76,18.48-1.07Zm-32,15.26a9.32,9.32,0,0,0-5.75,5.3c-1.15,12.88-15.79,27.72-25.54,37.66-5.69.91-6.27,9.2-1.92,1.76,11.68-2.69,16.19-13.19,26.54-17.33,5.09-9.22,8-20.84,15.88-27-.18,25.58-24.53,41.26-41,55.46,17.77-3.13,23.06-19.84,38-26.08-5.76,13-16.63,20.41-25.24,30.3,20.3-6.8,32.43-32.74,46-40.5-3.33,11.77-9.87,20.06-16,28.84,13.26-7.41,22.67-19,25.55-37.67-11.83,2.93-4.36-.89-10.89-4.14-4.43,6.74-4.66,18-15.5,17.79,3-8.9,7.26-16.48,10.28-25.39-5.72-2.77-6.14-.65-12.89-.53l.54-12.89c-9.9.45-5.45,5.23-8,14.4Zm-240.4,15.79c10.9-7.4,28.33-7.7,35.82-18.8-12.41-2.51-31,13.27-35.81,18.81Zm252.52,47.42c13.64-6.44,44.8-38.9,27.85-48.63-4.45,20.17-18.77,39.85-27.84,48.62Zm18.56-2.92c13.94-5.38,26.33-22.67,23.78-39.58-5.49,15.84-14.86,27.48-23.79,39.58ZM128.14,821c-8.47-1.7-11.33-17.85-19.72-13.73,7,3,10.38,18.74,19.72,13.74ZM595,858.88c6.5-10.25,17-16.14,18-32.44-10.08,5.12-15.15,25.82-18,32.44Zm55.38-1.37c5.78,1.1,19-16.45,17.57-23.24-6.12,7.44-11.37,15.86-17.57,23.25Zm-46.08-.08c9.33-.12,7-13,15.34-14.11,1.46,11.82-5.66,14.37-8.29,21.78,14.93-.61,13.78-21.09,4.92-29.3-2.46,8.89-8.41,14-12,21.63Zm31.6-6.06c1.79-4.57,12.13-9.78,8-14.42-.47,6-11.28,10.71-8,14.42Zm9.28-1.45c8.87,1.3,7.38-8.65,11.59-12.43-4.79,3.15-10.57,5.21-11.58,12.44Zm14.33,9.82c8-3.85,24.68-13.18,17.49-21.41-4.93,8.11-13,12.8-17.49,21.41Zm20.41-2.84c3.28-6.12,16.66-11.34,13.66-17.88-2.55,6.92-15.44,12.65-13.66,17.87ZM389.2,841.09c7-2,14.33-3.66,17-10.35-6.47,2.59-12.41,5.77-17,10.34Zm-154,21.23c10.82.22,18.25-3.25,22.56-10.12-8.48,2.32-15.66,6.08-22.56,10.11ZM136.6,839.77c7.81-.65,18,11.7,23.17,19.41-8,.81-11.8-2.14-14.5-6.14-1.5,1.55.36,8.18-7.67,7.06-5.37-8.27,6.5-12.91-1-20.32ZM139,827c13.08,9.21,24.66,19.81,35.59,31-14.64-.72-28.95-17.06-35.59-31Zm567-18.78-.24,5.52c-3.25-.55-9.3,1.47-7.21-4,3.28.36,4-2.11,7.44-1.53Zm-5.31-5.74c-2.78,2.75-4.17,7-6,10.82-3.31.09-3.79-2.42-7.29-2.15,3-4.46,6.68-8.16,13.28-8.66Zm-592.8-24.78c9.3,10.34,21.73,17.78,26.31,32.46C121.61,802.76,114.69,790.24,107.83,777.67Zm408.93,11.52c8.41,1.28,1.09,14-6,10.82.27-5.49,5.07-6.06,6-10.81Zm-64.43-2.68c-4.49,9.23-9,18.46-22.86,17.48,8.13-5.29,9.07-18.37,22.86-17.48Zm241.26,8.22c-2.24,4.62-3.86,9.92-7.91,12.58l-5.51-.23c2.9-5.82,5.67-11.77,13.41-12.36ZM481.94,784c-1.33,4.33-2.83,8.47-7.74,8.9,1.33-4.31,2.83-8.46,7.75-8.9Zm-11.06-.46c-5.45,4.34-2.78,17.5-15.34,14.12,2.43-7.64,8-11.83,15.35-14.12Zm22.18-.91c3-.42,3.1,1.87,5.44,2.07,1.35,6-4.93,3.62-5.83,7.13-4.29-.64-.72-8.12.39-9.2Zm-77.25-5.06c-14.14,10.9-26.44,27.56-43.65,29.53,13.67-9.65,27.47-29,43.64-29.54Zm249.69,27c1.41-8.73,7.13-12.78,10-19.87,6,4.25-2.4,8.35,10.82,6-1.86,9.37-10.33,20.18-20.86,13.89Zm-568-44c3.06,4.85,8.19,7.82,8.59,15.11-5.23-2.86-9.22-6.86-8.59-15.12ZM697.8,782c-2.82,3.38-10.13,7.68-13.12,5a8.68,8.68,0,0,0,2.07-5.45c5.76,1.17,7.38-3.72,11.06.46Zm-97.49-5.9c8.33.59,13.16,4.41,20,6.36-5.63,3.89-19.37.17-20-6.37ZM368.4,764.57c2.21,6.3-6.79,16.95-17.26,15.88,4.26-6.94,11.92-10.16,17.26-15.88ZM201,755.73c5.79,0,6.12,5,7,9.51-5.79,0-6.12-5-7-9.51Zm208.17,5c2.93,8.57-16.58,25.41-30.68,28.23,8-11.9,22.41-16.7,30.69-28.23ZM505,762.87c2.24,4.44-.67,19.73-10,18,1.42-8,7.12-11.45,10-18Zm-23.93-1c2.81,6.34-3.44,19.3-11.89,19.79,2-8.74,7.82-13.28,11.88-19.8Zm35.12-2.22c7,5.25.39,23.28-8.21,20,3.35-6,5.12-13.7,8.22-20ZM310,751.05c-3.47,9.06-8.76,16.14-19.18,17.64A39.83,39.83,0,0,1,310,751.06Zm-105-2.54c5.4-2.53,8.67,12,12.2,17.11-11.06.73-6.07-13.28-12.2-17.11Zm11.2-3.21c2.16-.19,3.26.54,3.61,2,5.84,11.23,10.76,24.32,16.95,35.74,6,11,17.27,19.29,17.18,30.23-19.5-16.28-27.94-42.76-37.74-68ZM693,763.35c-3.39,7.23-8,13.11-11.89,19.79-6.28-4.09,4-18.73,11.88-19.78Zm-160.17-6.68c-1.65,13-2.58,26.71-14.11,28.92,4-10.47,4-25.2,14.12-28.92Zm-75.41-5,7.36.3c-7.22,11-13.41,32.62-27.07,30.23,4.48-12.44,18.89-14.1,19.7-30.53ZM673,757c1.89,9.77-9.64,21.57-14.19,30.76,13.86-4.81,12.15-26.56,27.08-30.22-9.86,16.24-16.27,36.2-31.46,46.64,1-5.27,6.76-5.49,6.06-12.66-8.19.72-6,12.67-15.27,12.27,3.67-8.2,10.49-13,12-23.47-10.37,4.12-8.85,21.18-21.25,23.09,5.37-10.84,11.68-20.66,17.88-30.61,9.47,9.37,12.34-10.67,19.14-15.8ZM330.6,742.7c-.53,9.71-16.65,19.08-25.08,26.61,2-8.13,16.59-19.11,25.08-26.6Zm337,12.21c-2.28,5.88-5.79,10.4-8.06,16.26-6.88-3,1.4-15.91,8.06-16.26Zm-193.3-8.06c-1.47,11.9-7.46,35.5-25.47,35.82,9.2-11.18,17-23.89,25.47-35.83ZM72.39,698.73l5.52.23c-1.47,12.57,2.43,20.19.46,33.22-4.67-8.68-4.28-22-6-33.45Zm425.34,15.91c-6.11,6.82-10.4,15.63-19.25,19.48,2.36-10.91,7-19.38,19.25-19.49ZM481.17,714c-.29,8.67-5.82,11.63-9.9,16.18-7-3.57,1.14-17.66,9.89-16.18Zm36.9-.33c6.62,5-7,16.86-15.49,17.8,2.92-8.37,10.86-11.27,15.5-17.79Zm-11-2.29a8.74,8.74,0,0,0,5.45,2.07c-11,9.84-16.77,25.4-32.61,30,5.19-14.87,18.64-20.78,27.15-32.06Zm160.55-2.52c3-.37,3.1,1.87,5.45,2.07-4.42,7.39-7.76,15.94-17.34,17.71,2.47-8.18,9-12.05,11.88-19.77ZM698.88,712c0-5.8,5-6.13,9.51-7,2.43,3.2,3.57,16.67-4.29,14.57.73-4.79-.34-7.94-5.2-7.59Zm-71.26-15.89c-4.29.43-7-.59-9.13-2.23,2-4.1,9.39-4.17,9.13,2.22Zm54.68-29c-8,10.5-7.9,29.89-19.95,36,1.86-9.87,7.18-31.76,19.94-36.06Zm-493-29.81c3-.36,3.1,1.88,5.45,2.07,5.89,35.28,10.29,72,23.47,100.57-21.71-16.15-19.62-74.54-28.92-102.62Zm197.45-2.82,5.52.23c-6.58,16.59-14.6,31.61-34.6,33.6,8.82-12.22,22.94-18.68,29.07-33.82Zm-7.29-2.14c-5.25,12.44-17.54,33.4-36.59,37.2,12.23-12.36,20.76-28.76,36.58-37.21ZM347.86,594c4.88,3-3.26,7.82-4.14,10.89-4.86-3,3.27-7.82,4.15-10.88Zm61.22-8.51c-3,14.71-15.36,35.9-29.53,44.88,8.7-16.19,19-30.63,29.52-44.88Zm11.19-3.23c1.57,13.67-16.06,38.68-27.92,50.48,7.77-18.49,18.81-33.43,27.92-50.47Zm302.08,8.92a18.39,18.39,0,0,1-13.42,12.35q1.49-11.89,13.43-12.35Zm-285.2-15.59c2.15-.2,3.26.55,3.6,2-9.65,16.49-16.2,38-26.23,54.24-8.32,13.48-19.48,30.45-36.44,33.51,24-26.89,39.71-55.37,59.07-89.73Zm13-1.3,5.52.23c-18.46,30-28.25,69.36-57.15,88-1.76-5.68,18.22-25.79,25.47-35.83,7.18-19.11,19.49-32.66,26.16-52.37Zm-108.47-8.2c2.14,12.59-14.2,21.76-19.79,32.37-.71-11.06,14.54-21.37,19.78-32.37Zm131-.08c-19.44,32.11-29.75,74.15-61.06,93.36,20-29.59,39.86-59.31,55.54-93.59l5.53.24ZM499,552.39c2,11.36-7,43.53-22.33,48.86,6.44-17.35,17.08-30.15,22.31-48.86Zm-388.39-18c5.16.55,7.71,3.53,7,9.51-5.8,0-6.13-5-7-9.51ZM50,528.12c4.47-.55,3.86,3.53,9.13,2.22,1.48,16.11,3,39.51,3.22,55.47C51.13,574.75,55.92,548.07,50,528.12Zm716.07,31.73c-9,9.33-18.7-7.84-33-5.07,9.38-10.46,21.95,5.39,33,5.08ZM538.24,539.27c1.71,11-8.56,47.71-24.47,56.15,9.26-17.51,15.51-38.3,24.48-56.14Zm-12.8-2.38,5.53.23c-6.24,24-12.71,47.76-28.39,61.52,6.94-21.31,20.51-35.42,22.85-61.75Zm251.84,19.72c-12.73,4.6-20.24-10.86-36.51-8.89,7.22-10.5,28.42,3.44,36.52,8.89Zm104-17.78c-.19,6.86-8.41,5-15,4.91,1.26-5.71,10.8-2.38,15-4.91Zm-35.07.38c2.65,2.13,14.32-2.32,18.65-4.75,7.1,2-6.39,6.52-.31,7.36-20,5.11-34.56-2.24-53.24-5.91,6.17-6.76,14.75-10.91,26.31-11.81-4.31,5.58-13.89,5.43-17.11,12.2,11.47-1.64,16.89-9.87,28.15-11.74-.66,7.61-10,5.83-11.58,12.43,7.55-.13,11-4.73,16.88-6.68,4.84,3.51-5.8,6.35-7.73,8.9ZM53.45,489.54c10.63,2.62-1.06,25.77,9.9,28.08-4.5,3.07-7.28-5.07-13,1.3.71-12.36.48-23.68,3.07-29.38Zm750.68,42.38c3.06-8.86,12.28-11,20.86-13.88-5,6.71-9.75,13.78-20.88,13.88Zm17.41-19.56c-7.78,5.37-17.65,17.55-28.23,13.58,7.63-5.52,18.85-16.23,28.22-13.58Zm-10.81-6a54.14,54.14,0,0,1-28.38,17.26c6.55-8.91,16.92-13.67,28.37-17.26ZM678.4,495.33c3-.42,3.09,1.87,5.45,2.07-7,5.88-5.84,20.59-17.49,21.4,1.35-10.7,9-14.56,12-23.47Zm18.48-1.08c-4.57,10.43-7.07,23.11-19.48,25,3.66-11.42,9.22-20.78,19.47-25Zm193.4,6.23c4.48,1.78,12.76.06,12.65,6-4.48-1.78-12.78-.06-12.66-6Zm-178.51-9.3c-.6,8.72-7.81,25.87-21.4,26.78,5.32-10.88,12.22-20.06,21.39-26.78Zm-44.18-1.84,7.37.31c-6.74,15.13-10.6,33.38-29.15,35.67,6.66-12.64,19-19.13,21.8-36Zm-9.22-.39c3.73,8.06-12,36.37-23.55,34.07C643.54,512.6,651,500.8,658.38,489Zm66.37.93c-4.08,11.6-9,22.23-19.56,26.85,5.24-10.34,8.55-22.77,19.56-26.85Zm-170.08,9.51c7.69-3.49,14,9.47,21.63,12-1.95-5.91-14.83-17-21.09-24.85,10.36-5.32,22.14,16.9,28.38,27,9.91,2.09,14.89,8.72,23.47,12-18.28,5.8-42.81-12.26-52.4-26.15ZM69.48,458.86a755.21,755.21,0,0,0,40.2,97.58c-17.11-29.12-39.22-53.63-40.19-97.59Zm13-3.15c11.83,16.27,17.55,47.58,23.16,63.67-9-4.06-8.27-17.17-13.73-24.54-3.79,2.87-6.66,4.88-9.21-.39-1.62-5.61,4.24-3.09,7.52-3.37-3.83-10.63-11-18.23-7.74-35.36Zm531.21,42.45c2.69,5.28,7-9.66,11.2-3.22.17,7.88-7.06,7.73-9.75,12.5,11.09,7.51,11.18-13.47,20.87-13.88-.87,9.32-7.37,12.51-10,19.86,10.88,4.3,9.4-20.22,21.17-21.24-4.65,10.34-8.77,21.25-15.95,28.84-30.06-2.45-47.79-16.23-59.38-35.67,12.83,9.75,25.62,18.75,37.9,20,1.72-8.11-9.62-19.45-15.49-26.46,6.63-7.76,24.9,10.17,19.47,19.25Zm172.74-29.68c10.44,4.86-4.63,12.07-6.22,16.34-5.57-6.2,6.51-9.53,6.22-16.34ZM99,414c11.82,6.83,32.09,5.88,39.89,16.41-6,.8-8.51-1.61-12.81-2.38,5.13,14.76,23.69,17.15,26.23,34.29-7.86,2.49-21.28-3.58-29.22-6.75.91,8,20.14,14.5,24.77,25-1.45,7.6-14.57,5.47-20.4,2.84-.8,11.35,11.34,10.81,12,20.78-8.7-5.56-20.13-8.62-19.33-22.93,6.87-.59,8.48-1,18.49-1.08-5.59-15.06-32.69-19.3-31.76-34.52,10.36,5.23,23.89,7.53,34.52,12.51-3.34-15.83-24.24-30.81-44.57-36.9C96.78,418,99.28,417.48,99,414Zm-38.2-12.66c7.17,21.09-2.45,58-1.54,81.08-11.89-16.55-.68-53.31,1.31-75.56.11-1.19-2.65-3.59.23-5.52Zm524,38.45c-1.69-7,8.16-18,15.65-21.48-8.69-7.23-20.43,13-28.46,19.1-2-13.06,18.84-18,23.4-30.37,8.73-3.42,18.29,11,7,9.51a5.1,5.1,0,0,0,5.37,3.91c-1.73,5.18-4.55,9.17-9.66,10.66,4.4-7.37-11.56,4.41-13.28,8.67ZM143.21,415.83a13.12,13.12,0,0,1-5.68,3.45C123.8,402,92,393.15,74,394.5l.31-7.36c28.21-2.24,57.57,9.52,68.89,28.69Zm448.68-12.64c-14.68,14.2-28.55,29.27-46,40.5,11.21-18,24.79-33.34,46-40.5Zm-79.8-32.83c.56,8.94-9.24,6.63-13.34,10.51-37,25.21-63.68,61.65-92.52,95.72C432.3,431.15,462,389.64,512.1,370.36Zm37.6-16.88c-2.47,8.23-12.94,7.74-22.48,8.28,4.85-5.65,12.55-8.16,22.48-8.28Zm482.27,22-11-.46c1.06-5.81,10.18-6.55,11,.46ZM844.79,352.88c6.62,1.95-4.27,10.24,1.39,11.12-3.59,5.44-5.42-5.47-5.13-9.44,2.13.39,3.31-.28,3.77-1.68Z" style="fill:#C1AB7B"/>
</svg>