<?xml version="1.0" encoding="UTF-8"?>
<svg id="_Слой_2" data-name="Слой 2" xmlns="http://www.w3.org/2000/svg" viewBox="0 0 1100.11 546.88">
  <path id="path16405" class="cls-1" d="m728.01,477.1c12.24-.46,17.73,6.38,24.47,11.88-19.44-2-30.36-13.18-39.81-26,6.21-4.57,24.43,8.01,15.34,14.11h0Zm-16.27-36.2c6.62,6.9,15.81,11.02,21.1,19.41-12.09.27-21.09-12.99-21.09-19.4h-.01Zm-223.76-58.9c8.31,3.15,12.27,11.03,15.58,19.62-6.98-4.63-10.58-12.84-15.58-19.63h0Zm590.13-44.89c5.87,3.08,4.13,23.34-4.52,24.14.43-7.86-.06-16.57,6.59-18.72l-5.52.23c2.19-29.98,8.5-47.73,13.5-74.33-.88,21.27,2.15,48.66-10.05,68.66v.02Zm-322.17-75.11c14.26,6.08,17.93,24.59,27.36,37.59,6.11,8.37,14.68,17.67,21.33,24.93,5.89,6.44,15.08,11.34,13.65,17.87-31.05-19.77-42.86-48.55-62.37-80.38h.03Zm-123.75-48.32c9.94,19.33,18.92,39.69,28.3,59.69-17.11-10.27-24.02-41.87-28.3-59.68h0Zm-29.48-175.83c4.1,2.68,17.54,5.2,13.35,10.51-2.34-5.77-13.03-2.51-13.34-10.51h0Zm57.39,1.23c41.65,29.79,78.82,64.45,100.72,115.67-17.71-21.12-35.32-42.44-50.71-66.12C659.5,31.41,575.86-3.79,479.88,7.93c-24.53,2.99-48.79,8.4-73.79-.6-33.96,13.41-82.18.6-106.4,13.66-3.59.7-3.75-2.34-5.67-3.46-43.55,7.66-95.29,6.68-133.55,25.86-46.91-5.07-100.91,4.21-144.75,22.64,7.44-17.27,32.95-10.31,43.34-22.1,72-8.71,142.3-32.16,220-31.3,5.02-1.28,7.5-4.91,12.65-6.06,34.08-3.52,67.25-1.7,99.49-2.31,53.15-1,107.07-6.76,160.33-3,39.74,2.81,71.78,19.32,106.32,28.76,92.59,25.3,180.55,51.04,249.39,98.41,3.95-51.88,59.75-46.28,99.15-50.22l.39,9.2c-5.27-1.3-4.66,2.78-9.13,2.23-.38-2.16.1-5.26-2.07-5.45-5.19,15.81-23.78.49-32.83,8.75,4.35,10.67,27.58.81,31.83,11.58-6.21,1.11-20.71.9-16.33,6.21-6.04,1.94-8.42-9.89-11.28-5.06,18.36,38.49,33.64,88.91,20.18,130.1,3.87,4.86,2.78,16.97-4.83,16.8-1.49-19.36,5.9-52.79-2.77-66.28.13,31.55-5.04,55.58-9.58,79.71-2.52,13.39-4.7,27.39-11.43,35.51,2.91-50.57,30.68-105.28,12-153.57-10.83-4.34-19.22.48-29.69-4.28,11.86,91.56,7.42,215.29-35.58,296.56-7.3,2.54-13.65-4.32-14.65,2.45,4.15,3.99,6.22-1.8,12.89-.53-6.08,14.48-19.32,31.78-22.17,43.34,31.95-42.1,50.5-95.78,63.82-150.2,1-4.18-3.3-11.43,5-13.12-11.45,66.19-30.52,125.36-64.81,170.53,11.72-.23,17.02-1.74,23.85-2.84-5.58-5.56,4.32-15.31,10-26.23,4.69-9.01,7.66-18.53,13.81-22.71,2.27,7.91-8.9,17.39-9.9,28.07,10.07-5.49,10.3-20.02,19.18-26.61,1.28,17.71-17.26,32.5-29.53,43.65,3.16,6.14,6.84,6.01,11.35,6.9l-.31-7.36c9.35-.77.67,6.15,7.67,7,1.85-5.42,13.43-1.84,14.43-8,1.09-8.57-2.28-5.22-4-7.22,8.86-10.46,2.08-24.38,11.51-33.67,2.48-53.12,16.5-110.5,24.75-157.79,1.68-9.47-1.61-24.26,8-29.85-9.89,79.37-33.4,168.23-31.75,255.83,25.31-77.13,35.66-170.22,50.16-256.59.44-2.67,3.25-4.63,3.37-7.52.54-11.34-6.83-32.85,2-40.66,6.37,1.76-.28,7.11,4.07,9,14.53-9.07,15.3-40.2,29.53-43.65-6.64,27.54-33.69,45.73-33.83,73.34,10.23-6.52,12.29-20.56,22.86-26.77-3.95,21-19.89,30.3-20.17,47,8.41-6.41,11.32-17.9,21.17-23-5.76,20.08-24.61,28.11-25.46,52.7,32.65-31.93,46.63-81.04,72.61-119.23-5.54,25.16-22.77,48.1-31.91,75.1-15.61,21.65-40.91,43.79-43.1,71.88,26.36-30.47,45.99-62.37,60.36-100.26,5.86,1.78,4.9.66,9.13-2.22-9.71,41.05-6.42,88.93-7.28,134.93-.38,20.15-5.86,40.93,4.14,55.15,9.53,38.65-30.1,72.84-36.35,101.11-6.41,3.18-4.69,3.56-10.74,7.82-6.77-6.12,4.75-13.48-.77-18.41-3.73.7-3.4,5.14-7.13,5.83,2.23-5.49-1.57-9.41-.77-18.41,23.87-19,45-40.59,41-77.32-9.19,22.86-25.31,39.31-42,55.23-3.1-6.26,3.83-11.05,10.51-13.35,9.28-18.62,30.99-35.22,32.75-54.84-17.8,14.38-28.4,44.59-47.63,51.78,14.45-23.35,41.69-44.2,48.78-68.43-20.98,13.15-29.72,37.57-49.47,51.86,6.69-15.89,26.94-34.72,38.43-51.4,5.01-7.28,17.22-20.7,6.29-26.08-21.5,33.94-47.51,64.81-77.32,91.75-1.22,4.3-6.16,14.27-3,16.72,13.48-7.66,17.19-24.31,31.9-30.84-6.52,21.18-36.4,37.63-34.59,54.92,12.78-7.85,22.29-37.14,37.43-31.06-11.26,9.13-35.34,29.59-36.74,47.64,13.05-12.75,23.31-28.13,37.05-40.28-8.4,30.65-39.68,40.24-54.46,65,22.18-10.89,34.16-31.14,55.38-42.89-12.06,17.83-31.29,29.05-44.18,46.11-9.18-.43-23.54-1.58-29.69-4.28,4.14-5.63,10.14-9.55,12.2-17.1-6.01,8.23-23.14,13.04-17.34,26.54-6.48,1.27-4.8-6.33-11.28-5.06-29.75,21.43-43.64-20.91-56.84-36.36-20.52,9.46-41.71,18.33-69.19,21.33-64.57,26.11-133.69,21.61-211,27.24-68.18,4.96-137.38-7.93-185.79-32.72-14.65-24.52-37.37-40.21-43.65-73.8,3.71-9.57,7.6-18.97,9.82-29.91-22.18-3.88-14.54-28.36-27.54-41.27-11.45.94-12.99-8.94-20.79-12-.01-23.37-9.08-50.46,6.51-64.82-18.9-16.07-40.43-29.23-45-60.83-20.41-3.47-39.24-8.66-57.76-14.19-18.52-17.13-27.21-54.35-6.68-71.64,15.72-13.24,35.47-9.45,52.62-20.64-15.96-4.52-24.79,2.87-33.44-6,17.95.31,46.27,3.47,60.67-4.38-11.21,4.16-11.34-2.59-18.71-6.59-.85,5.92,3.69,5.55.38,9.2-8.96-.52-9.18-10.54-17.11-12.19,2.07,4.16,6.58,5.65,6.07,12.65-10.7,2.6-10.87-6.19-17-8.51-.68,5.82,6.54,4.6,2.22,9.13-8.51-.36-12-6.2-17-10.36-.54,3.82,10.48,8.92,2.22,9.13-7.15,3.7-9.91-6.99-13-1.3-.35,4.86,7.22,1.13,5.83,7.13-70.11-8.33-123.4,12.05-187.71,9.67-21.94-10.28-57.08-35.97-26.46-59.75-.41,9.07-7.1,12.36-4.53,24.16,12.87-.54,12.36,13.49,21,17.57-.05-2-.78-3.92-2.07-5.45,5.24-4.74,7.71,5.88,13.19,6.83.05-2.9-.55-6.39,3.45-5.68,12.22,6.9,24.67-2.94,35.28,5.9-.38-4.57-3.68-5.56-.38-9.21,6.8-2.25,5.44,4.36,11.2,3.23.29-3.28-2.24-9.15,3.38-7.52,4.27,3.1,6.58,8.23,13.27,8.67-2.3-2.8-6.18-7-2.3-11,7.94-.94,4.96,10.01,13.27,8.67-.36-6.03-5.51-6.82-4.3-14.58,9.27-.48,9.84,8.52,17,10.35-1.45-4.35-9.45-12.65-2.45-14.65,3.82,1.75,8.34,12.6,11.42,8.75-5.04-12.29,11.68-21.06.39-35.06,9.79.3-1.12-7.43,9-5.9,7.91,14.33.65,30.26,14.65,41.8,1.13-7.64-3.22-9.33-2.53-16.49,10.73-1.35,10.15,19.7,17.26,15.88-.56-6.82-7.63-13.4-4.44-18.26,7.46,2.12,6.57,13.3,13.57,16,.22-6.64-3.77-8.73-4.29-14.57,10.25.37,8.45,13.88,17.25,15.88-1.51-4.37-5.68-10.92-2.45-14.65,10.73-3.27,8.45,17.66,15.26,12.27.62-5.81-3.61-6.37-2.38-12.81,10.64-2.52,10.81,16.4,17.11,12.19-.53-5.2-3.69-7.53-4.22-12.73,14.87-3.94,8.17,15.5,20.87,13.89-1.83-4.44-4.63-7.81-4.3-14.58,8.51-.28,6.04,11.35,13.42,12.35,1.11-5.72-3.42-5.32-2.3-11,7.75-3.16,9.81,9.71,13.12,5-2.22-2.12-2.36-6.46-2.3-11,6.03-1.94,8.41,9.89,11.27,5.06-2.15-.22-2.14-2.83-2.07-5.45,6.74-2.73,10.81,7.23,13,3.14-1.54-1.27-5.52-12.58,1.4-11.12s1.47,16.37,11.66,14.27c-3-10.56-8.18-33.29,2-40.65,12.24,17.5,18.23,41.79,39,50-13.54-11.58-21.18-29.58-29.61-46.72,19.44,3.24,15.73,31.65,32.91,37.36-2.67-8.49-12.12-18.23-10.28-25.39,12.59,4.27,13.06,21.72,23.32,28.53-1.28-10.81-8.77-14.84-10.28-25.39,8.84-.65,6.91,10.45,13.42,12.35,2.68-2.87.14-10.51,7-9.51,5.61,5.45,7.5,14.9,15.5,17.8-2.05-5.47-6.86-7.95-6.22-16.34,9.8-.39,11.47,8.07,17.11,12.19-.36-6.02-5.53-6.82-4.29-14.57,12.39-1.26,11.8,21.76,21,17.56-2.63-3.43-10.21-13.57-2.53-16.49,6.34,3.41,7.24,12.67,15.34,14.12-2.78-5.27-7.23-8.77-8-16.27,9.62.37,5.6-2.33,18.25-4.44-2.31-5.31-1.35-6.79,3.32-9.36,9.41,3.79,7.09,14.79,11.89,19.79,3.17-4.16,2.52-11.84,10.58-11.5,3.69,6.64-5.21,12.52,4.38,16.41,12.95-7.56,15.56-24.63,30.06-30.76.3,10.3-8.55,12.18-8.27,22.48,8.04-2.64,11.99-9.04,19.79-11.89.97,7.97-4.03,10.46-4.83,16.8,5.71,1.1,5.31-3.42,11-2.3,1.89,3.36-5.26,6.36.3,7.36,29.5-12.65,81.74-14.21,110.32-8.29-4.38-7.43-15.57-7.45-19.11-15.8,23,5.13,44.41,22.29,62,26.92-8.12-11.06-23.86-13.84-32.38-24.47,39.34,14.37,74.61,49.79,96,90.06-19.68-18.38-33.45-43.15-59.45-54.69,12.7,16.34,36.34,31.05,40.81,49.93-18.31-19.91-35.1-41.41-59.45-54.69,17.14,16.64,35.04,32.47,48.33,53.31-24.49-14.44-35.34-43.7-63.13-54.54,16.32,15.63,33.67,30.11,44.57,51.63-22.73-17-41.64-48.39-66.9-56.23,18.26,14.84,35.02,31.22,48.26,51.47-20.78-14.62-32.14-39.48-57.38-49.24-2.35-5.71,2.68-4.6,3.37-7.52-5.3-.16-9.33.86-10.89,4.14,16.74,10.03,31.11,22.64,40.43,40.73-17.46-11.17-28.71-29.12-47.71-38.58,1.87-5.1-7.49-11.5-11.2-3.22,20.14,8.9,32.39,26.33,44.26,44.31-17.24-12.06-27.3-31.91-47.8-40.43-2.62-4.51,7.04-6.07,1.53-7.44-75.03,20.03-180.68,22.3-252.75,41.89-11.64,7-25.36,12-34.13,21.66-16.7.93-44.38,2.96-54.7,15.2,17.76-5.51,42.02-5.02,58.53-11.67,14.45,6.68,24.94,19.27,23.71,37.74-9.81,1.6-9.68,12.34-15.88,17.26-33.31,20.81-84.38,22.81-85.69-22.26-6.46,29.34,20.44,47.61,46,42.34,32.2,20.58,81.07-2.21,112.07-10.21-2.24-6.77,3.62-6.1,5.13-9.43-10.52-3.32-19.16-8.68-24.7-17.42,9.5-4.11,21.52,14.76,30,11.66-6.1-7.54-17.23-9.5-21.1-19.4,5.56-4.55,14.65,11.65,20.56,6.52-4-7.17-16.37-5.31-19-14,4.91-5.2,14.96,10.54,18.72,6.59,1.5-7.61,1.57-9.73-4.22-12.73,7.36,2.65.31-7.98,5.21-7.59,6.51,4.47,3.84,18.92,10.21,23.54,1.11-11.37.51-24.32,2.22-35.13,9.51,2.5,5.2,20.01,8.6,29.15,2.46-.68,3.4-2.77,7.28-2.15-1.48,13.2,11.59,20.71,15.65,21.48-3-8.35-9.26-13.06-12-21.63,9.91,5.52,21.18,18.94,21.47,28.61-6.91-4.64-10.7-4.84-14.8-1.22,20.55,13.13,45.48,6.45,66.73,8.28,12.63,1.08,23.85,8.08,35.37,7.74,7.03-.2,14.06-7.67,20.25-.84-4.2,3.48-12.49-.62-16.34,6.21,22.04-2.15,61.35-15.94,83.92-21.94-4.97,12.54-25.45,10.81-34.21,19.87,8.71-1.04,24.81-5.3,34.59-10.66-2.92,16.77-30.58,10.81-43.49,18.41,2.37,7.15,11.08,17.45,15.42,16-4.66-3.91-9.2-7.96-9.9-16.18,9.8-1.06,5.24,7.75,14.89,3.07.67,4.53,4.9,15.02,7.82,10.73.04-6.05-8.57-7.73-4.22-12.73,10.42.86,6.88,16.9,15.58,19.64-.15-8.18-5.59-10.59-4.53-20.1,9.99,15.47,16.38,34.8,24.32,52.47-12.77-1.51-9.85-20.08-19.49-25,3.86,18.24,11.86,32.01,23.86,41.42.5-6.99-9.3-8.57-4.3-14.57,7.95.98,5.83,12.9,13.51,14.19-.84-4.35-9.3-10.22-4.3-14.58,18.47,14.57,25.37,51.97,46.64,57.07-11.26-15-33.85-37.25-31.76-54,13.65,19.83,27.23,49.94,46.65,57.07-10.39-4.48-14.37-17.87-21.48-28.61-5.39-8.07-19.13-17.55-14-25.24,14.3,18.46,29.88,45.78,46.57,55.23-12.58-17.77-29.64-30.65-37.28-53.77,15.58,10.63,21.06,32.27,38.58,40.81-20.39-24.07-32.61-56.9-47.95-86.48,17.4,7.42,17.86,29.89,25.86,45,9.71,18.27,24.71,33.01,37,46.4.71,3.6-2.33,3.76-3.45,5.68,32.98,14.7,78.96,24.64,120.36,11.58l-14.73.61c-21.5-25.49-38.9-48.62-56.84-80.62,17.66,9.03,20.65,34,36.89,44.57-.25,5.41,4.4,5.48,4.15,10.89,11.17,4.52,12.8,19.42,26.69,21-12.97-18.61-30.98-31.75-39.2-55.53-6.27-3.84-18.25-18.38-12-23.48,18.46,27.44,39.05,62.74,64.05,76.63-12.03-13.87-30.76-30.69-33.37-48.4,11.95,16.53,25.22,31.61,40.59,44.42-19.66-28.04-43.84-51.15-58.84-84.23,24.35,21.66,37.13,55.87,64,74.79-7.49-13.04-22.21-28.42-23.87-41.42,8.19,7.15,15.55,25.4,25,24.77-21.24-22.45-35.42-52.58-53.08-78.93,25.52,17.81,35.13,63.17,60.29,74.94-56.4-75.32-78.33-198.39-154.12-246.23,40.83,38.35,70.54,88.84,92.83,147.35-38.49-53.73-58.15-127.94-120.82-155.4,42.8,29.8,72.03,74.38,95.58,125.11-11.17-.9-10.02-12.41-13.73-19.72-20.92-41.2-68.46-97.14-109.85-113.44l.16-.08Zm-337.15,54.71c-8.48-11.34-16.23-23.44-21.88-37.82-3.77,16.95,11.14,30.22,21.87,37.82h.01Zm43.79-11.05c-1.23-3.81-4.78-5.07-4.16-10.89l-3.68.15c.4,1.55-.65,1.76-1.76,1.92,3.52,2.58,3.15,9.4,9.58,8.82h.02Zm432.49,66.78c-11.62-40.61-35.03-68.43-62.85-91.43-2.15.38-1.41,3.42-1.61,5.6,50.64,40.5,74,110.72,101.42,176.5,17.93,19.64,25.13,50.95,48.79,64.35-36.03-43.56-51.5-109.5-85.77-155l.02-.02Zm-163.71-77.98c-3.26-2.87-6.93-5.31-13.12-5,1.86,4.41,7.6,4.57,13.11,5h.01Zm-323.41,28.24c3.4-5.11-6.14-12.55-8.14-18.11-3.12,2.44,5.04,7.36.54,12.89,4.6-.5,5.88,2.59,7.6,5.22h0Zm491.58,25.62c-7.58-28.3-29.3-41.28-44.94-60.83-1.69,8.65,11.71,19.67,19.71,30.52,7.72,10.43,13.79,26.41,25.24,30.31h-.01Zm125.37,219.75c-12.88-10.38-20.76-26.18-31.15-39.27.45,17.49,20.2,30.64,27.77,46.79,5.06,1.11-1.68-8.63,3.38-7.51h0Zm-151.52-272.16c34.88,46.83,62.69,111.37,84.39,166.15-24.35-31.26-32.8-79.81-58.07-110.07-2.06,3.97,3.83,19.92,6.59,25.54,24.41,49.67,48.54,113.39,85.54,149.51-10.84-20.93-26.34-36.8-33.91-61.29,23.4,27.8,36.68,66.61,62.83,91.43-59.17-76.16-80.44-193.53-147.37-261.27h0Zm146.61,242.84c-48.78-72.73-70.54-174.83-128-238.09,8.55,20.22,26.47,46.92,39.74,68.42,27.85,64.03,55.13,138.97,96.13,182.26,4.56-11.34-3.15-5.9-7.91-12.58h.04Zm7.01-7.67c-43.01-62.49-62.88-164.55-116.21-222-1.04,10.05,24.15,36.04,26.08,50.55,34.52,52.29,46.29,129.3,90.14,171.44h-.01Zm-76.2-192.29c-10.01-2.59-11.8-14.13-19.29-19.49-3.18-.54-3.41,1.59-3.53,3.84,33.93,49.71,58.93,109.14,80.93,171.83,8.87,3.19,6.35,18.75,17.42,19.55-24.32-60.37-47.12-113.94-75.41-172.05,12.27,8.7,18.48,27.19,25.77,43.19,7.19,15.8,18.09,31.22,24.09,46.94,2.53,6.68,1.87,16.34,4.68,23.78,5.81,15.37,11.44,29,21.94,39.66-17.22-59.57-44.17-125.18-80.86-170-4.5,3.17,3.64,8.74,4.22,12.74h.04Zm73.47-6.76c4.68-2.82,10.24-4.71,10.56-11.5-3.05,4.27-10.31,4.67-10.59,11.5h.03Zm5.97,143.59c-14.88-55.03-36.78-102.43-68.51-139.13,28.43,50.21,58.9,103.13,71.43,164.84,7.36-4.62-1.56-15.4,2.84-20.4-.35-3.48-6.14-1.02-5.76-5.3h0Zm-5.81-139.95c-6.42,3.54-9.55,10.11-8.37,20.64,8.53-1.57,3.29-15.83,8.37-20.64Zm-657.02,32.94c-4.33-3.03-28.54,5.35-40.27,7.22,11.93,3.27,26.81-5.99,40.27-7.22Zm667.96,53.3c-7.56-1.01-16.24-30-22.18-45.17,11.12,7.82,12.2,26.54,21.79,36-.09-18.58-10.79-19.78-16.49-41.73,6.2.31,7.6,5.85,9.66,10.66,3.77-10.55-12.89-15.46-21.09-19.41,1.08,2.69,2.93,4.53,4,7.21-8.25-1.29-9.75-9.93-15.34-14.11,3.91,14.36,17.95,34.36,26.08,50.55-16.87-9.37-25.36-44.23-41.27-61,13.15,36.39,40.74,73.74,52.86,117.67,4.88-13.53-11.2-36.19-15.12-52.85,9.86,2.75,8.8,17.38,15.73,23.32,4.73-1.76-3.86-7.93,1.4-11.12l-.03-.02Zm-716.91-32.76c-2.45,5.71.13,11.03,2.55,16.5,7.38.3,10.08-3.71,18.33-2.61-.6,7.12-14.87,1.67-14.34,9.82,19.21-2.35,48.76-16.19,63.66-21.1-1.43.47,22.74-.92,7.29-2.15-5.68-2.31-6.54,1.14-14.73.61,2.36-4.94,9.29-5.64,14.43-8-15.63-24.91-52.7-.23-77.18,6.91v.02Zm190.78,19.68c-3.15-4.92-7.26-8.79-9.82-14.34-7.97-.1-2.01,10.49,2.22,9.13-1.19,4.21-10.29,1.15-14.65,2.45,3.05,5.67,14.25,2.48,22.25,2.76h0Zm-180.43,7.53c19.05,1,40.09-11.49,60.22-15.42-20.07-1.93-39.21,12.32-60.21,15.42h-.01Zm16.73,3c4.44,2.82,14.63-4.18,21.93-4.6-5.94-4.21-16.09,2.83-21.94,4.6h.01Zm142.65,60.36c1.98-16.33,20.37-6.75,21.2-23-6.74,6.23-14.48,11.5-25.24,14,3.24-16.78,24.74-12.56,36.13-18.1-8.41-16.42-37.68-39.52-54.23-18,9.74-5.76,19.03-3.82,27.69.69-10.69,6.73-25.14,10-36.2,16.27-2.08-6.11,14.2-10.51,21.56-13.81-11.1-3.09-25.02,6.47-34.6,10.66-4.17-4.41,3.48-8.58,8.83-9.58-19.85,7.29-42.16,8.35-69.58,12.12,2.51,48.12,55.75,64.92,93.75,80.92,10.61,4.45,14.9,11.52,30,11.66-4.41-9.92-15.64-12.51-19.41-23.16,15.24,4.13,23.44,25.59,39.66,22.32-12.26-11.06-29.79-16.38-36.44-33.53,17.09,9.16,29.8,32.9,51.09,31.07-22.76-10.54-39.38-27.7-55.38-45.64,4.86-4.49,12.93,3.82,13.34,10.51,16.6,10.84,30.2,24.92,49.32,33-5.35-10.17-27.62-18.68-36.35-31.68,14.07-2.1,25.81,24.17,41.42,20.41-10.33-6.73-20.61-13.5-28.61-22.79,8.48-4.06,11.99,12.14,24.39,10.05-1.75-6.43-11.43-4.25-11.58-12.43,1.51-5.05,6.84,1.27,7.51,3.38,12.82-13.01,49.78-13.2,71.42-12.2,5.71-3.9-2.66-8.49-5.91-9-17.46,7.54-45.9,4.99-62.13,13.66-7.19-2.45-9.4-10.31-17.11-12.19,2.62-5.17,10.81-.37,11.2,3.22,4-2.7-4.88-7.4-6-10.82,6.43-6,9.73,3.71,16.73,3,4.67-5.07-5.62-3.69-5.91-9,9.11,3.59,19.41,2.47,27.54-3,.55-7.62-4.88,1.98-5.76-5.29,7.97-.97,10.46,4.03,16.8,4.83,7.57.55-.25-4.63-.31-7.37,15.32,6.52,32.2,3.19,37.82,22.4,9.84-6.93-9.56-13.45-11.89-19.79,19.71-.12,36.35,38.23,22.71,58.07,21.52-19.4-1.42-58.67-17.57-67.5-39.58-9.68-90.41,2.12-113.15,28.69,6.38,5.26,12.98,10.28,19.1,15.8-7.44,4.23-17.68-5.06-20.78-12-5.48,2.48,1.59,6.97,2.22,9.13-7.13.05-7.57-7.16-13.27-8.67.39-6.13,5.18-8.22,8.75-11.43-4.67-5.88-5.16,6.92-12.74,4.22l-.03-.1Zm180.05-16.6c9.16-7.23-11.1-11.06-11.91-19.8-2.58.83,3,12.53,6.37,20,1.89-3.71,4.23-8.78,5.52-.23l.02.03Zm-8.36,20.59c2.47.78-.24-8.44-2.24-9.12.36-4.4,5.06,1.83,5.67,3.45.77-7.3-6.59-22.31-15.8-25.16,2.44,12.1,5.73,23.27,12.35,30.83h.02Zm23.17-19.4c-3.28.38-3.97-2.08-7.44-1.53,3.96,5.95,4.59,15.54,10.05,19.87,4.1-3.97-5.43-9.34-2.61-18.34h0Zm-8.38,20.68c5.44-10.38-6.09-12.2-8.19-20-.47,5.1,11.14,15.92,2.92,25.7,6.16,6.12,12.48,12.09,17.41,19.56.88-6.09-3.87-22.7-12.12-25.32l-.02.06Zm31.77,9.7c-3.01-8.92-8.14-15.55-10.27-25.39l-5.53.23c5.23,8.43,5.37,22.39,15.81,25.16h0Zm-113.33-21.11c-11.54,4.13-29.5,2.35-32.6,14.26,13.04-1.23,30.7-4.85,40.43-3.53-1-7-13.79-1.18-7.83-10.73Zm569.36-10.96c-19.22,33.1-40,74.17-66.11,95-1.01,5.06-8.01,13.75-2.92,18.56,25.13-21.15,40.64-51.09,59.45-78.09-7.47,26.94-25.95,49.32-44.95,72-9.47,11.3-21,18.07-22.47,36,31.03-21.61,46.58-57.47,70.18-85.92-1.67-9.17,2.59-12.96.92-22.17-.11-4.69-1.46-2.19-3.76-1.69,2.13-12.16,10.13-19,9.66-33.69Zm-595.94,37.87c13.21,6.6,47.55,2.6,56.91-6.06-20.72,1.34-29.49,6.07-56.92,6.07h.01Zm156.67,41.47c-.8-4.34-11.9-13.98-15.65-21.51,11.55.89,11.16,14.8,21,17.57,2-6.11-15.46-17.77-10.36-27.23-1.18-6.42-10.45-4.04-13.27-8.67-4.35,3.01,4.28,8.01,4.22,12.73-6.35-2.26-11.81-8.48-8.05-16.26-5.77,1.14-4.41-5.48-11.2-3.22-.77,9.7,9.55,20.84,15.95,28.84.81,3.1-1.28,3.53-3.53,3.84,4.61,7.18,13.07,10.17,20.87,13.88l.02.03Zm-99.21-34.66c-10.92-5.73-45.35,1.4-64.35,4.52,20.62,5.48,43.82-3.45,64.36-4.52h-.01Zm74.57,19c1.55-10-18.91-12.79-23.1-23-1.94,7.29,15.41,10.15,15.65,21.47,2.92.03,6.99-1.18,7.44,1.53h0Zm-114.61-6.27c12.92-.05,25.47-3.06,42.26-3.6-10.89-7.69-43.94,3.41-62.59,2.61,6.78,8.05,22.21,6.67,37.12,5.86-3.2-4.22-13.22-1.02-16.8-4.84v-.03Zm180.27,33.03c-3.02-6.48-19.18-31.57-29.45-43-1.31,18.91,17.24,32.42,29.46,43h0Zm-219.86,77.36c2.07-.44.94-1.93-.14-1.81-.79-3.68.13-5.78,3.45-5.68.25-5.41-4.4-5.49-4.15-10.9,8.95-8.35,8.04,10.44,15.19,10.44-2.14-4.7-1.68-12.28-6.14-14.5.47-2.53,4.55-1.72,7.29-2.15-7.13-10.19-13.53-21.19-18-34.29,12.64,2.88,5.78,18.56,17.41,19.56-.73-9.83-4.89-16.4-8.52-27.31,15.71,5.31,20.55,26.31,25.55,37.67-.38,2.02-3.62,1.4-3.53,3.83-6.74-5.45-.09-14.87-11.74-16.11,7.28,11.36,9.75,27.91,18.18,38-9.33-.73-7.85-13.24-17.18-14,1.47,7.37,8.28,8.96,8.13,18.1-6.34,2.86-6.26-10.91-9.44-5.14-7.76.01.16,2.83.24,5.52-4.05,4.07-6.56-.55-12.81,2.38,33.9,9.94,65-18.39,95.35-13.2-6.38-5.27-25.69,3.61-29.69-4.27-2.16.38-1.42,3.41-1.62,5.59-13-1.17-14.43-15.09-23-21.17,1.17-5.7,8.44-7.93,7.44,1.53,5.33-1.78-1.38-5.88-.38-9.2-13.17,3.52-15.04-13.72-13.74-19.72,4.94,2.36,5.64,9.3,8,14.43,5.86-8.49-8.77-19.08-6.44-21.87,4.54-5.44,13.58,9.96,13.88,23.4,12.17-6.46-5.34-16.08-4.83-27.46-18.27-7.41-48.73-10.28-71.95-.69-2.3-.71-3.87-2.2-3.92-5.37-35.74,3.38-60.41-15.06-91.74-33.06-7.26,3.95-3.79,17.77-14,19,10.17,13.78,13.59,31.92,24.17,48.78,2.52-1.05,4.45-3.15,5.29-5.75,6.35.81,9,5.66,8,14.42,8.55-12.77,9.97,12.91,14.8,1.23,5.21,3.31-1.35,19.42,8.13,18.1-2.65-5.61.28-5.28-.53-12.89,7.86-.21,4.78,11.47,8.05,16.26,3.91-1.72,1.16-9.55,5.06-11.27,3.12,4.94,3.71,12.64,6.29,18.17,4.91-1.95-2.37-15.16,4.91-14.95,6,2.45,3.54,14.1,8.13,18.1,5.22.08-2-11.29,3.22-11.2,6.74-.25,3.15,10.69,11.43,8.75-1.64-2.13-2.66-4.84-2.23-9.13,6.9-.42,6.59,6.95,7.9,12.58,7.68.97-2.18-6.36,3.3-9.36,4.25,1.16,5.76,5.31,7.76,8.9,4.56-.47.27-6.26-.31-7.37,5.74-1.11,7.61,1.99,9.43,5.14l.05-.06Zm203.13-80.28c-4.74-8.98-12.71-31.07-25.54-37.67,5.36,14.42,14.13,27.32,25.56,37.61l-.02.06Zm-127.97-18.7c-14.47-1.12-38.19.87-53.47.4,11.38,5.48,38.59,4.73,53.46-.39h0Zm48.09,3.53c8.52,4.85,15.62,11.19,24.62,15.57-6.75-6.78-10.49-16.84-24.62-15.57Zm-3.57,3.79c-16.19,1.86-30.46,6.15-36.94-2.14-4.29.66-.72,8.14.38,9.21,12.97-2.92,24.08-3.96,33.22.46-8.7,7.6-25.75-3.47-27.23,10.35,8.82-4.86,26.32-1.74,32.82-8.74,4.56.67,8.66,3.16,11.36,6.9,5.37-8.44-13.21-7.36-13.58-16l-.03-.04Zm-64.17,8.25c3.76,5.01,12-1.34,22-2.75-4.14-1.49-15-1.43-22,2.76h0Zm416.2,30.63c-8.21-18.02-22.14-29.83-31.45-46.64,1.32,17.83,19.13,34.37,31.45,46.64h0Zm-3.34,7.52c-11.88-15.97-23.1-32.63-35.21-48.32,4.36,19.61,24.7,48.79,41,55.46,5.04-5.31-2.42-5.53-5.83-7.14h.04Zm60.41,78.62c28.46-33.45,65.07-59.35,80.46-104.79-16.53,14.23-25.91,33.63-40.34,49.63-14.74,16.32-36.66,29.16-40.12,55.16Zm34.67-53.1c13.12-27.47,39.64-42.58,46.64-75.71-25.38,26.82-44.03,59.82-72.1,84.16,2.75,9.87-.02,10.84-4.84,16.79,11.2-.34,15.16-22.62,30.3-25.23h0Zm-106.95.79c2.66-12.1-20.45-22.3-18-34.3,13,3.83,15.09,19.5,25.09,26.62-4.22-21.74-27.38-39.52-37.6-61.14-9.59,12.05,13.56,19.17,12.5,34.52-9.87-2.74-12.31-13.56-19.25-19.48.8,22.87,24.17,37.86,37.28,53.77h-.02Zm-341.43-52.13c-14.82-5.46-47.6,1.94-49,20.47,21.27-4.63,41.6-10.12,62.06-15.49-5.22-5.17-21.06,1.95-24-.85,1.74-3.14,7.74-2.32,10.89-4.14h.05Zm-56.76,11.59c8.11-3.2-1.43-9.8-4.21-12.74-4.5,3.17,3.64,8.73,4.22,12.73h0Zm91.48,25.7c4.86.35,1.11-7.19,7.11-5.84-2.38-12.77,4.34-22.22-5.06-33-2.21,7.66,5.06,30.82-2.07,38.82l.02.02Zm151.41,4.74c-15.71-12.42-30.69-25.66-45.88-38.66,5.98,15.33,25.82,32.23,45.87,38.66h.01Zm-167.18-28.12c-18.6-7.18-47.34,10.35-64.12,10.06-5.69.68,3.5,15.03-5,13.11,7.39,1.59,7.74,10.87,11.74,16.11,5.26-2,10.88-2.86,16.49-2.53,2.61.54.31,3.23-1.69,3.76,12.65,3.86,28.53-7.67,38.43-7.14-5.22-6.85-21.79,2.49-31.22,3.15.5-6.05,8.84-4.85,14.5-6.14-11.19-6.36-26.3,7.16-36.82,1.54,14.95-7.49,37.5-8,52.85-15.12-14.88-4.5-32.21,9.06-53.08,9.6,15.42-10.02,37.41-13.98,60.14-17.27-11.46-9.67-31.52,8.86-46,1.92,14.38-4.48,29.01-8.16,43.8-11l-.02-.05Zm324.96,52.88c-19.27-18.18-32.73-42.68-50.55-62.43,1.12,22.44,27.21,45.2,44.88,59,1.2.94,3.42,11.66,5.68,3.45v-.02Zm-151.12,4.78c-20.23-10.08-26.02-35.85-49.67-42.27,11.81,9.62,22.42,20.54,30.92,33.76-7.28,7.15-11.35-5.58-13.35-10.51-14.29-11.41-23.35-28.51-43.8-33.22,15.24,12.93,31.11,25.2,42.34,42.5-11.57,4.16-14.62-12.89-21.09-19.41-8.73-8.77-21.73-12.45-26.78-22.86-5.56,1.55-6.78-1.61-11.12-1.39,14.99,14.5,35.34,23.16,44.27,44.26-20.35-15.09-34.5-36.92-60.91-45.41,16.22,15.05,35.98,26.28,49.78,44-9.48,6.37-14.4-8.7-19-14-17.95-10.63-30.67-26.95-53-32.83,14.12,12.19,33.18,19.06,43.88,35-16.85-6.7-27.82-19.77-45.33-25.77,1.03,9.8,23.36,13.07,28.68,24.62-10,2.5-17.87-13.91-30.14-15.34,4.61,5.86,14.01,6.54,17.18,14-10.35,6-14.19-11.51-26.24-10,3.51,5.81,12.88,5.27,15.27,12.27-5.73.22-12.18-3.86-16.57.69,9.28,2.73,17.47,6.67,20.95,15.73-11.35,2.7-9.97-8.44-18.8-8.44.9,6.1,7.77,5.67,7.9,12.58-4.57,5.13-5.64-2.04-11.12-1.4,2.11,6.07-2.31,6.16-7.13,5.83,5.37,7,4.6,5.09,2.45,14.72,6.92,7.88,10.13,19.78,12.43,32.68-11.6.42-4.82-19.14-17.33-17.72,5.35,34.58,24.18,67.7,55,80.7-12.16-15.75-29.56-24.24-31.38-44.8-6.2-2.27-9.31-7.84-11.66-14.27l7.36-.31c12.73,29.14,32.94,50.1,58.05,65.76-10.22-13.91-34.73-28.93-42.73-51.7,20.04,13.5,31.78,36.02,53.62,47.56-7.14-14.71-33.13-25.56-38.89-48.17,19.84,15.63,32.38,39.24,57.38,49.24-15.79-14.27-32.4-27.65-44.34-46.1,15.5.68,23.62,21.05,36.36,31.68,7.94,6.63,17.47,8.94,24.62,15.57-8.56-15.08-35.3-27.05-44.42-47.94,20.83,12,34.86,31.39,57.08,41.88-6.73-13.19-32-22.9-40.35-40.76,18.27-2.53,25.12,23.99,45.34,25.77-3.94-11.76-19.35-11.09-24.86-21.09,18.82-.41,32.36,21.15,52.7,25.46,2.5-7.27-16.17-8.03-20.86-13.88,15.11-4.22,28.57,9.98,44.72,11.05-20.63-10.95-42.32-20.72-58.69-36.29.24-6.48,7.05,4.34,7.29-2.14,17.61,15.43,38.18,27.13,60.45,34.36-6.14-8.08-19.2-8.64-24.7-17.41,18.19.08,23.92,13.77,41.19,14.88-15.13-12.43-34.4-20.35-49.32-33,19-.12,32.53,22.35,56.3,23.47-13.04-11.5-40.42-24.05-55.16-40.12,9.47,0,21.01,14.4,32.15,19,5.66-3.89-1.59-9.65-4.15-10.89,16.29-.38,30.29,18.38,48.87,21.93-14.19-13.45-30.8-24.3-45.8-36.82,16.07,4.99,34.93,23.6,54.77,30.91-27.3-21-56.21-56.93-89.91-77.39-.93-3.48-4.15-4.46-4.06-9.05-5.58,1.6-5.55-2.97-11.12-1.4,14.44,11.25,27.38,24.12,36.74,40.89-21.7-12.31-32.41-36.62-53.7-49.41.81,9.46,17.45,18.22,21.56,30.46l-.12.3Zm89.72-63.06c5.28,21.92,34.07,51.45,58.07,65.81-21.36-19.77-40.07-42.41-58.07-65.82h0Zm-77.85,34.6c-11.21-12.23-26.34-20.11-38.21-31.6,3.28,13.13,20.49,27.75,38.2,31.6h0Zm66.32-.92c19.16-1.55,31.47,12.93,47.1,23.85-9.22-11.16-26.9-29.77-40.5-42.58,4.11,7.08,8.11,14.28,13.73,19.72-10.65.62-22-14.6-34-18.87,1.6,7.87,10.28,8.07,13.5,14.19-13.46,3.06-22.08-15.75-32.3-22.63,2.58,17.1,28.47,25.51,40.43,38.84-21.49-9.5-45.83,8.22-58.83,4.3,7.1,19.23,36.17,31.24,48.25,51.47,13.02,4.5,19.48,16.08,35.75,17-5.01-7.39-15.56-8.75-19.18-17.64,11.7,2.03,17.35,10.65,26.46,15.5,1.91-5.99-11.69-11.62-15.49-17.8,10.19-.82,10.16,9.48,20.63,8.36-7.19-9.37-9.85-13.24-17.57-23.24,10.3-2.57,11.26,14.66,22.71,13.8-3.01-8.91-10.97-12.45-13.81-21.55,10.71,1.23,10.64,14.1,22.71,13.81-6.79-13.15-21.68-17.49-28.92-30.15,9.86-.43,20.37,15.08,30.37,20.86-9.7-27.32-42.54-29.47-61-47.24h-.04Zm-25.46,8.43c-6.44-10.94-27.62-22.56-40.12-33.36,7.98,16.98,23.11,26.19,40.11,33.37h.01Zm-18.48-1.08c-10-13.49-24.84-21.76-38.21-31.59,3.47,12.92,22.86,25.17,38.21,31.6h0Zm-4.91-29.31c9.59,10.76,25.57,24.79,36.2,28-8.83-12.85-21.93-21.06-36.2-28Zm-267.87,33.31c-1.28-1.81-4.33-1.73-3.91-5.38l-5.52.23c1.08,6.43,4.21,7.65,9.44,5.15h-.01Zm67.02,58.08c17.58-14.52,8.16-48.14-18.49-45.34,5.84,8.88,18.57,5.59,22.94,19.33,2.54,8-1.83,16.35-4.46,26h.01Zm-74.83-24.57c12.93-7.58,29.72-11.61,49.24-13.11-14.73-5.4-38.55,5.45-54.92,9.67,1.14,4.56,3.81,7.42,6,10.82,8.12-.05.31-5.23-.31-7.36v-.02Zm27.97,50.54c11.29-6.7,22.44-3.75,30.78-14.2-12.28-.66-27.64,11.19-45.64,11.12,1.3,1.52,2.03,3.45,2.07,5.45-17.36-11.22-23.97-34.23-35.36-52-19.09-2.85-32.77,5.09-49.63,3.92-25.8-1.81-45.96-19.74-72.42-11.74,0,2.93,1.19,6.99-1.53,7.45.68,3.83,4.81-2.88,7.45,1.52-.96,23.35,14.43,39.07,26.23,54.24,3.99-2.62-4.22-8.06-4.22-12.73,8.84,3.86,12.47,13.39,19.26,19.48,2.36-2.7-3.38-12.91-6.22-16.34,11.18,1.96,12.38,14.77,21.1,19.41-5.1,5.78-10.19,2.02-20.1,4.53,9.03,5.29,20.3-2.5,31.3-1.31-6.76-2.92-13.91-5.41-15.34-14.12,3.57-.65,14.06,7.72,17.18,14,29.54-10.42,68.65-2.84,100.72-17.11-.39-2.15-3.43-1.41-5.6-1.61l-.03.04Zm-3.72-46.13c.21-5.11,10.35-1.1,8.89-7.73-12.19,1.27-10.07,4.8-21.86,6.44-1.62,5.62,4.24,3.1,7.52,3.38-1.39,4-7.95,3.33-10.82,6,.47,6.82,2.29,5.11.47,11,20.19-2,33.29-10.64,51-15-8.25-5.15-17.76,3.68-27.54,3,2.78-8.61,20.24-3.76,23.47-12-14.14-1.75-17.53,6.31-31.14,5v-.09Zm-27.16,12.27c2.47-5.1-8.86-8.83-8.14-18.1-7.18,3.72,3.13,15.51,8.13,18.11h.01Zm-140.48-3.31c-2.12,16.16,19.16,39.25,33.45,50.25-11.62-16.25-26.45-28.96-33.45-50.25Zm213.99.28c-19.64-1.53-42.54,9.25-58.3,17.19-1.3,5.26,2.82,4.67,2.23,9.13,30.81,2.39,29.23-25.04,56.07-26.32Zm-10.26,18.9c2.64,2.83,13.23-3.08,18.48,1.07-.58-7.78-14.84-1.83-18.49-1.08h.01Zm31.93,15.24c-2.55-9.17,1.9-13.95-8-14.4l.54,12.89c-6.75-.12-7.17-2.24-12.89.53,3.02,8.91,7.28,16.49,10.28,25.39-10.84.21-11.07-11.05-15.5-17.79-6.53,3.25.94,7.07-10.89,4.14,2.88,18.67,12.29,30.26,25.55,37.67-6.13-8.78-12.67-17.07-16-28.84,13.57,7.76,25.7,33.7,46,40.5-8.61-9.89-19.48-17.3-25.24-30.3,14.94,6.24,20.23,22.95,38,26.08-16.47-14.2-40.82-29.88-41-55.46,7.88,6.16,10.79,17.78,15.88,27,10.35,4.14,14.86,14.64,26.54,17.33,4.35,7.44,3.77-.85-1.92-1.76-9.75-9.94-24.39-24.78-25.54-37.66-1.05-2.52-3.15-4.46-5.75-5.3l-.06-.02Zm240.45,15.82c-4.81-5.54-23.4-21.32-35.81-18.81,7.49,11.1,24.92,11.4,35.82,18.8h-.01Zm-252.52,47.41c-9.07-8.77-23.39-28.45-27.84-48.62-16.95,9.73,14.21,42.19,27.85,48.63h0Zm-18.54-2.92c-8.93-12.1-18.3-23.74-23.79-39.58-2.55,16.91,9.84,34.2,23.78,39.58h0Zm450.26-37.18c9.34,5,12.72-10.74,19.72-13.74-8.39-4.12-11.25,12.03-19.72,13.73h0Zm-484.86,5.44c1,16.3,11.5,22.19,18,32.44-2.85-6.62-7.92-27.32-18-32.44Zm-37.38,31.08c-6.2-7.39-11.45-15.81-17.57-23.25-1.43,6.79,11.79,24.34,17.57,23.24h0Zm46.11-.08c-3.59-7.63-9.54-12.74-12-21.63-8.86,8.21-10.01,28.69,4.92,29.3-2.63-7.41-9.75-9.96-8.29-21.78,8.34,1.11,6.01,13.99,15.34,14.11h.03Zm-39.63-20.48c-4.13,4.64,6.21,9.85,8,14.42,3.28-3.71-7.53-8.42-8-14.42Zm-1.29,12.98c-1.01-7.23-6.79-9.29-11.58-12.44,4.21,3.78,2.72,13.73,11.59,12.43h-.01Zm-31.81-11.59c-7.19,8.23,9.49,17.56,17.49,21.41-4.49-8.61-12.56-13.3-17.49-21.41Zm-2.92,18.56c1.78-5.22-11.11-10.95-13.66-17.87-3,6.54,10.38,11.76,13.66,17.88h0Zm290.72-15.82c-4.59-4.57-10.53-7.75-17-10.34,2.67,6.69,10,8.35,17,10.35h0Zm154,21.22c-6.9-4.03-14.08-7.79-22.56-10.11,4.31,6.87,11.74,10.34,22.56,10.12h0Zm98.6-22.54c-7.5,7.41,4.37,12.05-1,20.32-8.03,1.12-6.17-5.51-7.67-7.06-2.7,4-6.5,6.95-14.5,6.14,5.17-7.71,15.36-20.06,23.17-19.41h0Zm-37.99,18.23c10.93-11.19,22.51-21.79,35.59-31-6.64,13.94-20.95,30.28-35.59,31Zm-531.4-49.79c3.44-.58,4.16,1.89,7.44,1.53,2.09,5.47-3.96,3.45-7.21,4l-.24-5.52h.01Zm5.31-5.73c6.6.5,10.28,4.2,13.28,8.66-3.5-.27-3.98,2.24-7.29,2.15-1.83-3.82-3.22-8.07-6-10.82h0Zm592.85-24.81c-6.86,12.57-13.78,25.09-26.37,32.49,4.58-14.68,17.01-22.12,26.31-32.46l.06-.03Zm-408.99,11.56c.93,4.75,5.73,5.32,6,10.81-7.09,3.18-14.41-9.54-6-10.82h0Zm87.29,14.8c-13.86.98-18.37-8.25-22.86-17.48,13.79-.89,14.73,12.19,22.86,17.48Zm-264.11-9.27c7.74.59,10.51,6.54,13.41,12.36l-5.51.23c-4.05-2.66-5.67-7.96-7.91-12.58h.01Zm211.69-10.76c4.92.44,6.42,4.59,7.75,8.9-4.91-.43-6.41-4.57-7.74-8.9h-.01Zm11.06-.46c7.35,2.29,12.92,6.48,15.35,14.12-12.56,3.38-9.89-9.78-15.34-14.12h-.01Zm-22.17-.91c1.11,1.08,4.68,8.56.39,9.2-.9-3.51-7.18-1.13-5.83-7.13,2.34-.2,2.44-2.49,5.44-2.07h0Zm77.26-5.07c16.17.54,29.97,19.89,43.64,29.54-17.21-1.97-29.51-18.63-43.65-29.53h.01Zm-249.66,27.02c-10.53,6.29-19-4.52-20.86-13.89,13.22,2.35,4.82-1.75,10.82-6,2.87,7.09,8.59,11.14,10,19.87l.04.02Zm567.96-44.03c.63,8.26-3.36,12.26-8.59,15.12.4-7.29,5.53-10.26,8.59-15.11h0Zm-600.31,21.44c3.68-4.18,5.3.71,11.06-.46.04,2,.77,3.93,2.07,5.45-2.99,2.68-10.3-1.62-13.12-5h-.01Zm97.5-5.91c-.63,6.54-14.37,10.26-20,6.37,6.84-1.95,11.67-5.77,20-6.36h0Zm249.17,4.35c-10.47,1.07-19.47-9.58-17.26-15.88,5.34,5.72,13,8.94,17.26,15.88Zm143.14-15.21c.88-4.51,1.21-9.51,7-9.51-.88,4.51-1.21,9.51-7,9.51Zm-201.18-4.51c8.28,11.53,22.69,16.33,30.69,28.23-14.1-2.82-33.61-19.66-30.68-28.23h-.01Zm-85.82,20.14c-9.33,1.73-12.24-13.56-10-18,2.88,6.55,8.58,10,10,18Zm13.94-19.01c4.06,6.52,9.88,11.06,11.88,19.8-8.45-.49-14.7-13.45-11.89-19.79h.01Zm-35.14-2.22c3.1,6.3,4.87,14,8.22,20-8.6,3.28-15.21-14.75-8.21-20h-.01Zm206.2-8.59c8.19,3.56,14.94,9.77,19.18,17.63-10.42-1.5-15.71-8.58-19.18-17.64h0Zm92.8,14.57c3.53-5.11,6.8-19.64,12.2-17.11-6.13,3.83-1.14,17.84-12.2,17.11Zm1-20.35c-9.8,25.24-18.24,51.72-37.74,68-.09-10.94,11.18-19.23,17.18-30.23,6.19-11.42,11.11-24.51,16.95-35.74.35-1.46,1.45-2.19,3.61-2v-.03Zm-476.79,18.09c7.88,1.05,18.16,15.69,11.88,19.78-3.89-6.68-8.5-12.56-11.89-19.79h.01Zm160.15-6.68c10.12,3.72,10.12,18.45,14.12,28.92-11.53-2.21-12.46-15.92-14.11-28.92h-.01Zm75.43-5c.81,16.43,15.22,18.09,19.7,30.53-13.66,2.39-19.85-19.23-27.07-30.23l7.36-.3h.01Zm-215.58,5.33c6.8,5.13,9.67,25.17,19.14,15.8,6.2,9.95,12.51,19.77,17.88,30.61-12.4-1.91-10.88-18.97-21.25-23.09,1.51,10.47,8.33,15.27,12,23.47-9.27.4-7.08-11.55-15.27-12.27-.7,7.17,5.06,7.39,6.06,12.66-15.19-10.44-21.6-30.4-31.46-46.64,14.93,3.66,13.22,25.41,27.08,30.22-4.55-9.19-16.08-20.99-14.19-30.76h.01Zm342.39-14.29c8.49,7.49,23.08,18.47,25.08,26.6-8.43-7.53-24.55-16.9-25.08-26.61h0Zm-328.94,28.47c-2.27-5.86-5.78-10.38-8.06-16.26,6.66.35,14.94,13.26,8.06,16.26Zm185.24-24.33c8.47,11.94,16.27,24.65,25.47,35.83-18.01-.32-24-23.92-25.47-35.82h0Zm401.93-48.12c-1.72,11.45-1.33,24.77-6,33.45-1.97-13.03,1.93-20.65.46-33.22l5.52-.23h.02Zm-425.36,15.9c12.25.11,16.89,8.58,19.25,19.49-8.85-3.85-13.14-12.66-19.25-19.48h0Zm16.57-.64c8.75-1.48,16.89,12.61,9.89,16.18-4.08-4.55-9.61-7.51-9.9-16.18h0Zm-36.92-.32c4.64,6.52,12.58,9.42,15.5,17.79-8.49-.94-22.11-12.8-15.49-17.8h-.01Zm11.02-2.28c8.51,11.28,21.96,17.19,27.15,32.06-15.84-4.6-21.61-20.16-32.61-30,2-.05,3.92-.78,5.45-2.07h0Zm-160.55-2.51c2.88,7.72,9.41,11.59,11.88,19.77-9.58-1.77-12.92-10.32-17.34-17.71,2.35-.2,2.45-2.44,5.45-2.07h.01Zm-31.29,3.12c-4.86-.35-5.93,2.8-5.2,7.59-7.86,2.1-6.72-11.37-4.29-14.57,4.51.87,9.51,1.2,9.51,7l-.02-.02Zm71.28-15.88c-.26-6.39,7.13-6.32,9.13-2.22-2.13,1.64-4.84,2.66-9.13,2.23h0Zm-54.67-29.06c12.76,4.3,18.08,26.19,19.94,36.06-12.05-6.11-11.95-25.5-19.95-36v-.06Zm493-29.73c-9.3,28.08-7.21,86.47-28.92,102.62,13.18-28.57,17.58-65.29,23.47-100.57,2.35-.19,2.45-2.43,5.45-2.07v.02Zm-197.44-2.83c6.13,15.14,20.25,21.6,29.07,33.82-20-1.99-28.02-17.01-34.6-33.6l5.52-.23h.01Zm7.29-2.15c15.82,8.45,24.35,24.85,36.58,37.21-19.05-3.8-31.34-24.76-36.59-37.2h0Zm31.58-38.33c.88,3.06,9.01,7.88,4.15,10.88-.88-3.07-9.02-7.89-4.14-10.89h0Zm-61.2-8.51c10.52,14.25,20.82,28.69,29.52,44.88-14.17-8.98-26.53-30.17-29.53-44.88h.01Zm-11.2-3.22c9.11,17.04,20.15,31.98,27.92,50.47-11.86-11.8-29.49-36.81-27.92-50.48h0Zm-302.09,8.92c7.96.31,12.44,4.42,13.43,12.35-6.34-1.45-11.45-6.15-13.42-12.35h-.01Zm285.21-15.57c19.36,34.36,35.07,62.84,59.07,89.73-16.96-3.06-28.12-20.03-36.44-33.51-10.03-16.24-16.58-37.75-26.23-54.24.34-1.45,1.45-2.2,3.6-2v.02Zm-13-1.29c6.67,19.71,18.98,33.26,26.16,52.37,7.25,10.04,27.23,30.15,25.47,35.83-28.9-18.64-38.69-58-57.15-88l5.52-.23v.03Zm108.48-8.23c5.24,11,20.49,21.31,19.78,32.37-5.59-10.61-21.93-19.78-19.79-32.37h.01Zm-131.02-.07l5.53-.24c15.68,34.28,35.54,64,55.54,93.59-31.31-19.21-41.62-61.25-61.06-93.36h-.01Zm-26.29-13.62c5.23,18.71,15.87,31.51,22.31,48.86-15.33-5.33-24.33-37.5-22.33-48.86h.02Zm381.37-8.49c-.71-5.98,1.84-8.96,7-9.51-.87,4.51-1.2,9.51-7,9.51Zm55.26,41.91c.22-15.96,1.74-39.36,3.22-55.47,5.27,1.31,4.66-2.77,9.13-2.22-5.92,19.95-1.13,46.63-12.35,57.69Zm-703.72-25.95c11.05.31,23.62-15.54,33-5.08-14.3-2.77-24,14.4-33,5.07h0Zm227.82-20.57c8.97,17.84,15.22,38.63,24.48,56.14-15.91-8.44-26.18-45.15-24.47-56.15h-.01Zm12.82-2.38c2.34,26.33,15.91,40.44,22.85,61.75-15.68-13.76-22.15-37.52-28.39-61.52l5.53-.23h.01Zm-251.86,19.72c8.1-5.45,29.3-19.39,36.52-8.89-16.27-1.97-23.78,13.49-36.51,8.89h-.01Zm-88.99-12.87c-6.59.09-14.81,1.95-15-4.91,4.2,2.53,13.74-.8,15,4.91Zm20.05-4.53c-1.93-2.55-12.57-5.39-7.73-8.9,5.88,1.95,9.33,6.55,16.88,6.68-1.58-6.6-10.92-4.82-11.58-12.43,11.26,1.87,16.68,10.1,28.15,11.74-3.22-6.77-12.8-6.62-17.11-12.2,11.56.9,20.14,5.05,26.31,11.81-18.68,3.67-33.24,11.02-53.24,5.91,6.08-.84-7.41-5.36-.31-7.36,4.33,2.43,16,6.88,18.65,4.75h-.02Zm792.81-49.67c2.59,5.7,2.36,17.02,3.07,29.38-5.72-6.37-8.5,1.77-13-1.3,10.96-2.31-.73-25.46,9.9-28.08h.03Zm-750.69,42.38c-11.13-.1-15.88-7.17-20.88-13.88,8.58,2.88,17.8,5.02,20.86,13.88h.02Zm-17.42-19.56c9.37-2.65,20.59,8.06,28.22,13.58-10.58,3.97-20.45-8.21-28.23-13.58h.01Zm10.81-6c11.45,3.59,21.82,8.35,28.37,17.26-11.03-2.64-20.96-8.68-28.38-17.26h.01Zm132.36-11.03c3,8.91,10.65,12.77,12,23.47-11.65-.81-10.49-15.52-17.49-21.4,2.36-.2,2.45-2.49,5.45-2.07h.04Zm-18.51-1.08c10.25,4.22,15.81,13.58,19.47,25-12.41-1.89-14.91-14.57-19.48-25h.01Zm-193.4,6.23c.12,5.94-8.18,4.22-12.66,6-.11-5.94,8.17-4.22,12.65-6h0Zm178.51-9.3c9.17,6.72,16.07,15.9,21.39,26.78-13.59-.91-20.8-18.06-21.4-26.78h.01Zm44.15-1.86c2.8,16.87,15.14,23.36,21.8,36-18.55-2.29-22.41-20.54-29.15-35.67l7.37-.31-.02-.02Zm9.23-.32c7.38,11.8,14.84,23.6,23.56,34.02-11.55,2.3-27.28-26.01-23.55-34.07v.05Zm-66.37.88c11.01,4.08,14.32,16.51,19.56,26.85-10.56-4.62-15.48-15.25-19.56-26.85h0Zm170.09,9.51c-9.59,13.89-34.12,31.95-52.4,26.15,8.58-3.28,13.56-9.91,23.47-12,6.24-10.1,18.02-32.32,28.38-27-6.26,7.85-19.14,18.94-21.09,24.85,7.63-2.53,13.94-15.49,21.63-12h.01Zm485.16-40.54c-.97,43.96-23.08,68.47-40.19,97.59,15.66-31.55,29.09-64.16,40.2-97.58h-.01Zm-12.99-3.14c3.26,17.13-3.91,24.73-7.74,35.36,3.28.28,9.14-2.24,7.52,3.37-2.55,5.27-5.42,3.26-9.21.39-5.46,7.37-4.73,20.48-13.73,24.54,5.61-16.09,11.33-47.4,23.16-63.67h0Zm-531.25,42.43c-5.43-9.08,12.84-27.01,19.47-19.25-5.87,7.01-17.21,18.35-15.49,26.46,12.28-1.25,25.07-10.25,37.9-20-11.59,19.44-29.32,33.22-59.38,35.67-7.18-7.59-11.3-18.5-15.95-28.84,11.77,1.02,10.29,25.54,21.17,21.24-2.63-7.35-9.13-10.54-10-19.86,9.69.41,9.78,21.39,20.87,13.88-2.69-4.77-9.92-4.62-9.75-12.5,4.2-6.44,8.51,8.5,11.2,3.22l-.04-.02Zm-166.48-13.32c-1.59-4.27-16.66-11.48-6.22-16.34-.29,6.81,11.79,10.14,6.22,16.34Zm683.4-63.55c-20.33,6.09-41.23,21.07-44.57,36.9,10.63-4.98,24.16-7.28,34.52-12.51.93,15.22-26.17,19.46-31.76,34.52,10.01.08,11.62.49,18.49,1.08.8,14.31-10.63,17.37-19.33,22.93.66-9.97,12.8-9.43,12-20.78-5.83,2.63-18.95,4.76-20.4-2.84,4.63-10.5,23.86-17,24.77-25-7.94,3.17-21.36,9.24-29.22,6.75,2.54-17.14,21.1-19.53,26.23-34.29-4.3.77-6.81,3.18-12.81,2.38,7.8-10.53,28.07-9.58,39.89-16.41-.28,3.48,2.22,4,2.19,7.27Zm36.24-14.41c1.99,22.25,13.2,59.01,1.31,75.56.91-23.08-8.71-59.99-1.54-81.08,2.88,1.93.12,4.33.23,5.52Zm-524.25,32.93c-1.72-4.26-17.68-16.04-13.28-8.67-5.11-1.49-7.93-5.48-9.66-10.66,2.51.2,4.79-1.46,5.37-3.91-11.29,1.49-1.73-12.93,7-9.51,4.56,12.37,25.4,17.31,23.4,30.37-8.03-6.1-19.77-26.33-28.46-19.1,7.49,3.48,17.34,14.48,15.65,21.48h-.02Zm441.62-23.96c11.32-19.17,40.68-30.93,68.89-28.69l.31,7.36c-18-1.35-49.8,7.5-63.53,24.78-2.16-.64-4.11-1.83-5.68-3.45h.01Zm-402.69,27.86c-17.45-11.23-31.32-26.3-46-40.5,21.21,7.16,34.79,22.5,46,40.5Zm33.79-73.33c50.1,19.28,79.8,60.79,105.87,106.23-28.84-34.07-55.52-70.51-92.52-95.72-4.1-3.88-13.9-1.57-13.34-10.51h0Zm-15.11-8.6c-9.54-.54-20.01-.05-22.48-8.28,9.93.12,17.63,2.63,22.48,8.28Zm-493.75,13.26l-11,.46c.82-7.01,9.94-6.27,11-.46Zm176.14-22.14c.46,1.4,1.64,2.07,3.77,1.68.29,3.97-1.54,14.88-5.13,9.44,5.66-.88-5.23-9.17,1.39-11.12h-.03Z" style="fill:#C1AB7B"/>
</svg>